<svg width="123" height="64" viewBox="0 0 123 64" fill="none" xmlns="http://www.w3.org/2000/svg">
<g clip-path="url(#clip0)">
<path d="M9.08282 34.1495C8.83996 34.3112 8.6133 34.4889 8.40283 34.8283C8.07902 35.3132 7.73903 35.8465 7.49617 36.493C7.09142 37.592 6.41143 38.497 5.99048 39.5637C5.86096 39.8869 6.70285 40.0162 7.02666 39.7738C7.2857 39.5798 7.54474 39.3213 7.7876 38.9819C7.98188 38.7071 8.28949 38.497 8.48378 38.1253C8.71044 37.6889 8.85615 37.1394 9.1152 36.6869C9.37424 36.2505 9.71423 35.8303 10.1514 35.4748C10.4914 35.2 10.8637 34.9415 11.3656 34.7637C11.6571 34.6506 11.9323 34.5213 12.4018 34.5536C12.8713 34.5859 13.2923 34.7314 13.7294 34.9253C14.1827 35.1192 14.6684 35.3617 15.1056 35.6849C15.7856 36.2021 16.5951 36.6223 17.437 37.0425C18.2141 37.4465 19.0074 37.8344 19.7684 38.3354C21.3226 39.3374 22.4559 40.792 23.8483 42.1334C24.2693 42.5536 24.6902 43.0707 25.1597 43.6041C25.5483 44.0566 25.9692 44.5738 26.4711 45.0586C27.2644 45.8505 28.0092 46.6748 28.8511 47.4667C29.1101 47.7091 29.4177 47.9516 29.7254 48.2101C30.0006 48.4364 30.3244 48.6627 30.6806 48.8728C30.8749 48.9859 31.0044 49.099 31.2472 49.2283C31.393 49.3091 31.6682 49.3899 31.7168 49.2606C31.8139 49.0182 31.571 48.8081 31.4577 48.5495C31.3606 48.3394 31.2958 48.0324 31.0853 47.9192C28.9482 46.7556 27.4749 44.9778 25.7588 43.297C25.5483 43.0869 25.354 42.8606 25.1273 42.5697C24.9654 42.3596 24.6578 42.1172 24.5607 41.8425C25.014 42.0687 25.4997 42.2627 26.0664 42.4889C26.1959 42.5374 26.3902 42.6182 26.5683 42.7314C26.7302 42.8283 26.8435 42.893 27.054 43.0384C27.3292 43.2 27.6854 43.4101 27.993 43.6849C28.4463 44.1051 28.9158 44.4607 29.353 45.0101C30.0168 45.8667 30.7939 46.6586 31.7653 47.2404C31.9596 47.3536 32.1215 47.4182 32.3644 47.5798C32.4291 47.6283 32.5425 47.693 32.6396 47.7253C32.7691 47.7738 32.7853 47.8546 32.9958 47.8546C33.1091 47.8546 33.1091 47.7738 33.2224 47.7738C33.012 47.499 32.9148 46.9334 32.6396 46.6263C31.6196 46.5778 30.8425 45.8667 30.2273 45.1556C29.5958 44.4122 28.8511 43.6202 28.0254 42.9576C26.8921 42.0526 25.613 41.3253 24.075 40.6627C22.6017 40.0162 21.4198 38.7718 20.1246 37.7374C19.5093 37.2526 18.8455 36.8 18.036 36.4122C16.7894 35.8142 15.6237 35.1354 14.3932 34.4404C13.5351 33.9556 12.7094 33.4708 11.3494 33.4546C10.459 33.5031 9.71423 33.7455 9.08282 34.1495Z" fill="#898987"/>
<path d="M34.21 23.4989C34.1129 23.612 34.55 23.5958 34.6795 23.612C34.8738 23.6282 35.1814 23.612 35.149 23.7575C35.1005 23.9191 35.23 23.9029 35.0357 23.9837C34.7767 24.0969 35.3757 24.2262 35.5052 24.0161C35.7481 23.6443 35.3433 23.3211 34.7443 23.3696C34.5824 23.3696 34.3395 23.3534 34.21 23.4989Z" fill="#898987"/>
<path d="M33.3518 22.4646C33.1899 22.5777 33.0118 22.707 32.947 23.0303C32.8661 23.3858 32.9794 23.8868 33.6108 23.8222C33.7565 23.806 33.368 23.5797 33.3841 23.3212C33.4165 22.8202 33.8699 22.7555 34.1613 22.707C34.3718 22.6747 35.2784 22.6262 34.8089 22.3676C34.6794 22.2868 34.4689 22.2222 34.1613 22.2383C33.8699 22.2222 33.5946 22.2868 33.3518 22.4646Z" fill="#898987"/>
<path d="M32.8338 15.6445C32.6557 15.6607 32.4129 15.7253 32.17 15.7577C32.0081 15.79 31.7815 15.8708 31.5386 15.9354C31.1339 16.0486 30.7777 16.2102 30.3244 16.3556C30.2434 16.388 30.1463 16.5496 30.2596 16.6142C30.5672 16.792 31.1501 16.6627 31.571 16.5819C32.3319 16.4364 33.2386 16.2263 34.2748 16.2587C34.6633 16.2748 35.1167 16.3718 35.489 16.5657C35.6833 16.6627 35.7481 16.889 36.1205 16.8405C36.3795 16.8082 36.4119 16.0324 36.2014 15.8223C35.91 15.5476 35.3433 15.4829 34.6471 15.4829C33.9995 15.4829 33.4976 15.5476 32.8338 15.6445Z" fill="#898987"/>
<path d="M35.23 17.3415C34.8414 17.1152 34.4204 16.9213 33.6757 16.9375C33.4328 16.9375 33.2871 16.9536 32.9471 17.0021C32.3967 17.0829 31.7167 17.1961 31.2795 17.5678C31.2957 18.0041 31.6357 18.2304 31.9433 18.489C32.2671 18.7476 32.6395 19.0062 33.19 19.2001C33.6433 19.3617 34.2909 19.394 34.89 19.2163C35.2947 19.087 35.8128 18.9092 35.9747 18.4405C36.169 17.8264 35.6509 17.5839 35.23 17.3415ZM33.0605 18.4243C32.6395 18.2304 32.2024 17.9718 31.9433 17.7132C32.429 17.4223 33.3519 17.4062 33.2871 17.4385C33.0281 17.6163 32.8824 18.1657 33.0605 18.4243ZM34.6309 18.0688C34.4366 18.1981 34.129 18.0365 34.0481 18.0849C34.0481 17.794 34.2909 17.6486 34.4204 17.6324C34.6147 17.6163 34.7442 17.988 34.6309 18.0688ZM35.5376 18.2304C35.3919 18.3597 35.2785 18.5213 34.9062 18.5859C35.1976 18.2466 35.0195 17.8102 34.9709 17.7132C35.149 17.8587 35.6509 18.1173 35.5376 18.2304Z" fill="#898987"/>
<path d="M35.4403 8.11319C35.2298 8.38794 35.0841 8.67885 34.6956 8.87279C34.3718 9.03441 34.048 9.14754 33.5622 9.24451C32.7365 9.42228 31.3928 9.42228 30.4861 9.40612C30.389 9.40612 30.0328 9.40612 29.8871 9.40612C29.7575 9.40612 29.4823 9.3738 29.3042 9.38996C29.1909 9.40612 28.9804 9.5839 28.8509 9.72935C28.7052 9.89097 28.7861 10.2788 28.6566 10.489C28.3814 10.893 28.0252 11.2324 27.5719 11.4586C27.1995 11.6364 26.8919 11.8304 26.3252 11.895C26.1471 11.9112 26.0014 11.9597 25.8071 12.0243C25.7262 12.0566 25.4509 12.0243 25.2405 12.1213C25.0786 12.1859 24.8357 12.1698 24.6252 12.2506C24.4795 12.2991 24.2691 12.3637 24.0586 12.4122C23.8967 12.4607 23.67 12.5415 23.5567 12.59C23.3462 12.6869 23.1195 13.0263 23.0224 13.1556C22.7796 13.4788 22.9253 14.4485 23.0224 14.8687C23.1843 15.5475 22.9091 16.0809 22.6015 16.5496C22.4072 16.8405 22.1481 17.1314 21.7596 17.3738C21.6786 17.4223 21.63 17.5031 21.4681 17.5677C21.3872 17.6001 21.3386 17.6809 21.1767 17.7617C21.0148 17.8425 20.8205 18.0203 20.5453 18.1172C20.3348 18.1819 20.1729 18.295 19.9301 18.392C19.671 18.4889 19.4444 18.8607 19.5577 19.3617C19.6548 19.7819 19.8653 20.1213 19.8491 20.6869C19.8491 20.9617 19.6872 21.2849 19.5253 21.495C19.072 22.0768 18.5215 22.691 17.8901 23.2081C17.7606 23.3213 17.6149 23.4344 17.4368 23.5637C17.3882 23.596 17.032 23.79 16.9673 23.9193C16.8701 24.1132 16.8377 24.3071 16.9673 24.5334C17.1777 24.8728 17.5339 25.1314 18.1491 25.0991C18.7158 24.5011 19.2177 23.8223 19.8491 23.2405C20.2539 22.8687 20.6586 22.4485 20.9501 21.9152C21.0634 21.7051 21.2577 21.4142 21.2091 21.0425C21.1605 20.5253 20.9177 20.2182 20.6748 19.7819C20.5939 19.6364 20.6748 19.5233 20.772 19.4748C21.3062 19.1839 22.0024 19.0869 22.5691 18.7314C23.1681 18.3597 23.751 17.9718 24.01 17.2122C24.1557 16.8081 24.3176 16.598 24.3014 15.9677C24.2852 15.4991 24.1881 15.1112 24.0262 14.691C23.9452 14.497 24.0748 14.1738 24.2043 14.0768C24.609 13.7859 25.1919 13.7213 25.8071 13.6081C26.7785 13.4304 27.7176 13.1879 28.4623 12.7193C28.8023 12.493 29.1423 12.2344 29.4337 11.8465C29.5956 11.6364 29.7899 11.3617 29.6118 10.9576C29.6604 10.9576 29.6604 10.7637 29.7575 10.7799C30.5185 10.8768 31.2632 11.0061 32.0727 10.8283C32.2185 10.796 32.4289 10.7637 32.7042 10.6991C32.7851 10.6829 32.947 10.7314 33.0442 10.6667C33.0927 10.6344 33.3194 10.6667 33.4165 10.6506C33.8375 10.5536 34.2908 10.5213 34.7441 10.392C34.9708 10.3273 35.2784 10.198 35.586 10.0687C35.9908 9.90713 36.4117 9.60006 36.2498 8.77582C36.1689 8.33946 35.9422 7.85461 35.4727 7.69299C35.4565 7.64451 35.5213 8.00006 35.4403 8.11319Z" fill="#898987"/>
<path d="M32.0405 5.17163C31.9919 5.62416 31.8786 5.80193 31.5548 5.91507C30.81 6.15749 29.8062 6.14133 28.7539 6.20598C28.2682 6.2383 27.7501 6.28678 27.1672 6.31911C26.6653 6.33527 26.1796 6.39991 25.6615 6.51305C25.4349 6.56153 25.0787 6.6585 24.7873 6.77163C24.3825 6.91709 23.9778 7.06254 23.5892 7.36961C23.2654 7.6282 23.0064 7.95143 22.7797 8.33931C22.6016 8.63022 22.3911 8.93729 22.2454 9.40597C22.1321 9.74537 22.1483 10.3433 22.0673 10.7474C21.9864 11.1999 21.9216 11.6201 21.7921 12.105C21.5816 12.8484 20.9502 13.107 20.2378 13.5433C19.6226 13.9312 18.975 14.3191 18.3759 14.8363C18.0036 15.1595 17.696 15.6282 17.6636 15.8545C17.5502 16.5332 17.5502 17.1151 17.5341 17.7777C17.5341 17.9231 17.5179 18.2464 17.4693 18.408C17.4045 18.6181 17.356 18.7635 17.2912 18.9898C17.2426 19.1838 17.0969 19.41 16.9512 19.6363C16.8379 19.7979 16.7245 20.008 16.5303 20.1696C16.4655 20.2343 15.4455 21.3009 15.1703 21.7535C14.7817 22.3676 14.3932 22.9979 14.1341 23.8545C13.7941 24.9858 14.2798 26.1656 14.9922 26.7797C15.0731 26.8444 15.2836 26.9413 15.3969 26.8282C15.4455 26.7797 15.575 26.6504 15.5103 26.4726C15.3969 26.1171 15.2836 25.4868 15.3808 24.8888C15.4779 24.3393 15.656 23.7575 15.915 23.2403C16.1903 22.6908 16.5626 22.0928 16.9998 21.5757C17.1455 21.4141 17.356 21.1393 17.4693 20.913C17.5988 20.6383 17.7607 20.4444 17.9064 20.1534C18.2788 19.3615 18.1655 18.1979 18.2626 17.0181C18.2626 16.9373 18.3274 16.7272 18.4245 16.6302C18.5217 16.5171 18.6188 16.4201 18.6998 16.3231C18.8293 16.1777 18.9912 15.9676 19.1855 15.8221C19.4769 15.6282 19.8169 15.4666 20.2378 15.3211C20.3997 15.2565 20.5292 15.1757 20.7559 15.0625C20.9016 14.9817 21.0959 14.9656 21.274 14.804C21.7759 14.3353 22.2778 13.8504 22.4883 13.0747C22.6178 12.5575 22.8121 12.0888 22.7959 11.4585C22.7797 10.6019 22.9416 9.8585 23.3302 9.26052C23.573 8.87264 23.9292 8.50092 24.4311 8.30699C24.8197 8.14537 25.273 8.06456 25.872 8.01608C26.293 7.98375 26.7787 7.95143 27.3939 7.95143C27.7501 7.95143 28.2358 7.96759 28.7215 7.95143C29.1748 7.93527 29.5634 7.90294 30.1301 7.8383C30.3891 7.80597 30.7129 7.74133 31.0205 7.70901C31.3281 7.67668 31.5548 7.57971 31.911 7.51507C32.0081 7.4989 32.1053 7.46658 32.251 7.36961C32.5262 7.17567 32.7367 6.90092 32.6719 6.30294C32.6395 5.99587 32.5424 5.62416 32.2995 5.39789C32.2348 5.33325 32.2672 5.15547 32.1214 5.12315C32.0567 5.07466 32.0405 5.13931 32.0405 5.17163Z" fill="#898987"/>
<path d="M24.9005 2.68287C24.7062 2.87681 24.4634 3.02226 24.1072 3.07075C23.2329 3.2162 22.6663 3.44247 21.8082 3.68489C21.5653 3.74954 21.2577 3.92732 21.0311 4.04045C20.8044 4.15358 20.5292 4.31519 20.3025 4.47681C19.8977 4.78388 19.4768 5.09095 19.1368 5.52732C18.8454 5.89903 18.6025 6.36772 18.4406 6.90105C18.3273 7.25661 18.2787 7.77378 18.3273 8.37176C18.3597 8.79196 18.6025 9.21216 18.554 9.69701C18.473 10.4889 18.1654 11.0384 17.7444 11.5556C17.5664 11.7819 17.3073 12.0081 17.0483 12.2505C16.8702 12.4122 16.4654 12.7031 16.3197 12.8809C16.0445 13.1879 15.6235 13.3657 15.3807 13.7859C15.2997 13.9314 15.1216 13.9798 15.0083 14.1899C14.9273 14.3354 14.8302 14.4485 14.7007 14.6748C14.6197 14.8202 14.5064 14.9334 14.4255 15.1596C14.2959 15.5475 14.1502 15.8061 14.1502 16.4041C14.1502 17.1475 14.1988 17.9233 14.0531 18.6182C13.9883 18.9253 13.875 19.3132 13.7617 19.6202C13.6483 19.9596 13.4864 20.2021 13.3569 20.5738C13.2436 20.9293 12.9683 21.3334 12.7902 21.7213C12.6283 22.0606 12.3369 22.4162 12.2074 22.9011C12.1426 23.1273 12.0293 23.5152 11.9807 23.7899C11.8512 24.3718 11.835 24.9859 11.9483 25.6324C12.0131 25.9879 12.2398 26.3112 12.5312 26.5697C12.7093 26.7152 13.2759 26.9899 13.3407 26.6667C13.454 26.1172 13.2112 25.8425 13.2436 25.1637C13.2921 24.1455 13.4217 23.2566 13.8102 22.4485C14.2797 21.495 14.8626 20.3314 15.2512 19.2485C15.3321 19.0223 15.3807 18.9253 15.3645 18.5536C15.3645 18.295 15.3483 18.1657 15.2997 17.8263C15.2673 17.6485 15.235 17.3091 15.2673 17.0182C15.3159 16.4526 15.5911 15.9354 15.9473 15.5314C16.4007 15.0303 16.8864 14.3677 17.534 13.9152C17.874 13.6728 18.1978 13.4627 18.4568 13.0425C18.7806 12.493 19.1854 12.0081 19.3797 11.3132C19.5739 10.5374 19.2987 9.7455 19.1206 9.01822C19.0559 8.7758 19.153 8.45257 19.2178 8.1455C19.2339 8.04853 19.2825 7.95156 19.2825 7.74146C19.2825 7.61216 19.3311 7.48287 19.412 7.33742C19.4606 7.25661 19.5092 7.11115 19.6063 7.01418C19.8977 6.69095 20.2377 6.36772 20.6911 6.10913C21.1282 5.86671 21.5977 5.72125 22.1968 5.51115C22.391 5.44651 22.6339 5.44651 22.9415 5.31721C23.1196 5.23641 23.4272 5.20408 23.6863 5.12328C24.1558 4.97782 24.7548 4.96166 25.2243 4.7354C25.3215 4.68691 25.4348 4.62226 25.5158 4.50913C25.6615 4.28287 25.6777 3.71721 25.5481 3.37782C25.4348 3.05459 25.3862 2.50509 24.9653 2.44045C24.8843 2.42428 24.9977 2.56974 24.9005 2.68287Z" fill="#898987"/>
<path d="M39.0508 10.0039C39.0184 9.64839 38.9537 9.29283 38.8727 9.03425C38.7594 8.69485 38.6946 8.43627 38.5651 8.1292C38.3708 7.67667 38.1765 7.24031 37.8689 6.7393C37.7556 6.54536 37.5937 6.30293 37.4318 6.09283C37.2861 5.91505 37.1727 5.57566 36.9623 5.41404C36.5899 5.07465 36.2985 4.62213 35.8613 4.26657C34.7766 3.39384 33.5785 2.58576 32.1861 1.97162C31.6195 1.71303 30.9719 1.42213 30.3081 1.16354C29.709 0.921115 29.0452 0.743338 28.3167 0.549398C27.4748 0.323136 26.6005 0.145358 25.4996 0.0807114C24.9653 0.0483882 24.6577 0.0322266 24.1396 0.0322266C23.152 0.0322266 22.5044 0.145358 21.5492 0.355459C21.2254 0.436267 20.7558 0.581721 20.3673 0.759499C20.0111 0.921115 19.6711 0.9696 19.2825 1.19586C18.7806 1.48677 18.1978 1.71303 17.6635 2.10091C17.1616 2.47263 16.6921 2.84435 16.255 3.39384C15.7207 4.05647 15.1864 4.75142 14.7655 5.59182C14.5064 6.10899 14.2798 6.69081 14.0855 7.40192C13.9559 7.85445 13.875 8.53324 13.7779 9.09889C13.7293 9.35748 13.6483 9.58374 13.5998 9.9393C13.5674 10.1979 13.4702 10.4565 13.3893 10.7474C13.2436 11.2807 13.0817 12.2504 12.7255 12.6221C12.6122 12.7353 12.4017 13.1878 12.256 13.3817C12.0779 13.6241 11.8512 13.9151 11.6569 14.2221C11.576 14.3353 11.4788 14.4646 11.3817 14.6585C11.3493 14.7231 10.5398 15.8221 10.3779 16.7272C10.3131 17.0827 10.2484 17.4868 10.3131 17.9393C10.3617 18.2787 10.4912 18.6666 10.4427 19.1191C10.3455 19.7817 10.216 20.3797 9.97315 20.9454C9.61697 21.7534 9.0665 22.4322 8.71032 23.3858C8.48365 23.9837 8.27318 24.6302 8.25699 25.4544C8.25699 25.5837 8.2408 25.9393 8.27318 26.1171C8.32175 26.3433 8.37032 26.8928 8.66175 27.2322C8.69413 27.2646 8.45127 27.3454 8.22461 27.4747C8.0789 27.5555 7.917 27.6363 7.75509 27.7494C7.54462 27.9272 7.15605 28.0888 6.88082 28.3151C6.44369 28.6868 6.05512 29.0262 5.65036 29.4787C5.27799 29.8989 4.88942 30.4322 4.61419 31.0464C4.35515 31.6282 4.11229 32.3231 3.90182 33.1151C3.80468 33.4544 3.75611 33.8262 3.62659 34.1979C3.52944 34.505 3.4323 34.9252 3.30278 35.3292C3.1085 35.9918 2.83326 36.7676 2.67136 37.6241C2.6066 37.9312 2.55803 38.2868 2.4447 38.6585C2.31518 39.0625 2.12089 39.4827 1.92661 39.9837C1.7809 40.3716 1.57043 40.8403 1.47329 41.3898C1.40852 41.713 0.971388 42.408 1.65138 42.3757C1.87804 42.0039 1.9428 41.5514 2.2828 41.1959C2.62279 40.8403 2.9466 40.4201 3.23802 39.9029C3.41611 39.5959 3.61039 39.1433 3.72373 38.6423C3.83706 38.1736 3.95039 37.5757 4.0961 37.0423C4.12848 36.8969 4.14467 36.8322 4.20943 36.6544C4.24181 36.5736 4.29038 36.3959 4.32277 36.2827C4.38753 36.0565 4.4361 35.7656 4.51705 35.4747C4.80847 34.4726 4.97037 33.3252 5.32656 32.307C5.39132 32.1292 5.4237 31.9353 5.53703 31.6928C5.77989 31.1595 6.13607 30.6747 6.54083 30.1575C7.02653 29.5433 7.88462 29.0423 8.53222 28.606C8.75889 28.4605 9.13126 28.1858 9.17983 28.2181C9.53602 28.5736 10.3293 28.6868 11.0255 28.7999C10.4751 29.0747 10.0541 29.3656 9.60078 29.7696C9.24459 30.0928 9.0665 30.5454 8.62937 30.9009C8.2408 31.2241 7.80366 31.5312 7.44748 31.9676C7.13986 32.3393 6.84844 32.7433 6.5894 33.2605C6.29797 33.81 5.95798 34.408 5.69893 35.1353C5.2618 36.3474 4.88942 37.5757 4.29038 38.7878C4.22562 38.9171 4.04753 39.0787 4.17705 39.1918C4.38753 39.3696 4.67895 39.2888 5.01894 39.1757C5.08371 39.1595 5.19704 39.111 5.32656 39.014C5.4237 38.9494 5.47227 38.8363 5.5856 38.7555C5.7475 38.6262 5.84465 38.4322 5.95798 38.2221C6.31416 37.5433 6.65416 36.7837 6.94558 35.9918C7.22082 35.2807 7.60938 34.5534 7.96557 33.7938C8.11128 33.4868 8.28937 33.1474 8.53222 32.808C8.87222 32.3231 9.2284 31.7252 9.76268 31.2888C10.1027 31.014 10.4751 30.7231 10.9769 30.513C11.1227 30.4484 11.3655 30.3191 11.6731 30.3837C12.1426 30.4646 12.515 30.6908 12.8874 30.9332C14.0207 31.6605 14.8788 32.7433 15.9312 33.6807C16.3197 34.0201 16.7245 34.3757 17.2749 34.6342C18.2302 35.0706 19.2987 35.4585 20.2216 36.0403C21.6949 36.9938 23.2168 37.8666 24.9167 38.7716C25.5805 39.1272 26.2767 39.5474 26.8434 40.0807C28.6081 41.7615 30.4214 43.4423 32.1214 45.2848C32.3966 45.5757 32.688 45.9312 32.9795 46.3029C33.2223 46.61 33.4328 47.0787 33.8375 47.3211C34.2261 47.5474 34.7118 47.6605 35.1328 47.7898C35.408 47.8706 35.6994 47.9514 36.088 47.8544C36.1366 47.8383 36.2175 47.6928 36.1204 47.5959C35.1004 46.4645 34.0804 45.2686 32.9309 44.1373C32.7204 43.9272 32.5261 43.814 32.3157 43.5393C32.1376 43.313 31.8138 43.1999 31.7328 42.8767C31.5547 42.1817 31.3443 41.6646 31.0852 40.9373C30.9395 40.5332 30.81 39.9999 30.5347 39.5635C30.4376 39.4019 30.3566 39.0787 30.2595 38.8524C30.1624 38.6585 30.049 38.4322 29.9357 38.1736C29.7576 37.8019 29.5309 37.414 29.3205 37.0262C29.2881 36.9615 29.3205 36.9292 29.3852 36.9938C30.1786 37.8342 31.0204 38.7231 31.7976 39.7252C32.3966 40.5171 33.028 41.309 33.5785 42.2302C34.1128 43.1353 34.728 44.0726 35.1975 45.1393C35.327 45.4302 35.2623 45.8181 35.5051 46.0605C35.667 46.2221 35.9261 46.3353 36.1689 46.4161C36.3147 46.4646 36.3794 46.5292 36.4927 46.6262C36.5737 46.6908 36.7194 46.7393 36.8651 46.7555C36.9623 46.7716 37.1242 46.7555 37.0594 46.6262C36.6223 45.608 35.9585 44.5575 35.5051 43.5393C35.408 43.3292 35.4566 43.2322 35.4728 42.8282C35.4728 42.5858 35.4404 42.3272 35.3918 41.9393C35.3109 41.3252 35.3756 40.6625 35.149 40.0161C34.9871 39.5474 34.8413 38.9817 34.5661 38.5454C34.1614 37.9151 33.6271 37.3171 32.8823 36.8646C32.7042 36.7514 32.6719 36.4282 32.5261 36.1858C32.4128 35.9918 32.2671 35.7817 32.089 35.5555C31.4576 34.8282 30.7452 34.1494 29.6929 33.7454C29.5148 33.3736 29.3205 32.9211 28.9805 32.5656C28.6891 32.2585 28.3814 31.9514 27.9119 31.6767C27.5557 31.4666 27.0377 31.1918 26.4062 31.1272C26.4224 31.111 26.5843 29.6403 26.7624 29.6726C27.2805 29.7696 27.75 29.8342 28.3491 29.9151C28.8348 29.9797 29.369 29.9474 29.9033 29.8504C30.3243 29.7858 30.7614 29.6241 31.1176 29.3656C31.409 29.1555 31.6357 28.8646 31.8785 28.4928C32.1376 28.0888 32.1861 27.6848 32.3319 27.1029C32.9147 27.0221 32.9795 27.1514 33.2709 26.9252C33.4004 26.8282 33.4328 26.5211 33.4004 26.3918C33.3033 26.0848 33.3195 26.0848 33.4652 26.0524C33.7728 26.0039 33.6109 26.1332 33.9995 25.9716C34.2261 25.8747 34.0642 25.1151 34.2747 25.0504C34.6471 24.9534 35.327 25.1635 35.9099 25.0181C36.3147 24.9211 36.7194 24.711 36.8489 24.2747C36.9137 24.0646 36.9946 23.9676 37.027 23.6605C37.0432 23.4504 37.108 23.2726 37.108 22.9171C37.1242 22.4161 37.1727 21.8181 37.2537 21.1878C37.3508 20.4282 37.5289 19.6524 37.6746 18.7959C37.8042 18.0039 37.9984 17.2767 38.0956 16.3231C38.1441 15.9353 38.1927 15.4666 38.2575 15.0302C38.2899 14.8363 38.3546 14.1575 38.387 14.0605C38.4194 13.9959 38.4356 13.8342 38.4518 13.7373C38.5003 13.414 38.5489 13.1231 38.5813 12.6383C38.5975 12.4282 38.6137 12.1696 38.6784 11.9433C38.727 11.7817 38.727 11.4908 38.7918 11.2322C38.9375 10.9575 39.1156 10.5534 39.0508 10.0039ZM34.3394 41.5029C34.048 41.2767 33.7728 40.6625 33.4976 40.3878C33.368 40.2585 33.3033 40.0484 33.3195 39.9191C33.368 39.0302 33.2871 38.4322 33.1576 37.7373C34.0966 38.4969 34.2747 39.9514 34.3394 41.5029ZM30.5995 34.909C31.2795 35.4262 31.6842 36.2019 31.9271 37.01C32.089 37.5595 32.2347 38.2221 32.2023 38.7393C31.7004 38.1252 31.15 37.5595 30.6643 37.0746C30.5186 36.9292 30.5186 36.5575 30.4862 36.412C30.4214 36.1373 30.3728 35.9433 30.3243 35.7494C30.2109 35.2969 30.0167 34.7959 30.0328 34.4565C30.2271 34.6019 30.4052 34.7635 30.5995 34.909ZM9.61697 26.3918C9.48745 25.7938 9.50364 25.2767 9.64935 24.905C9.8922 24.2585 10.1512 23.7252 10.4427 23.208C10.7341 22.6747 11.0093 22.109 11.2198 21.5757C11.4465 20.9938 11.5436 20.412 11.576 19.7817C11.6084 19.1676 11.4303 18.7635 11.4141 18.3757C11.3979 17.8262 11.576 17.4383 11.7217 17.0989C11.9322 16.5979 12.2074 16.0646 12.4664 15.6928C12.6284 15.4666 12.7579 15.1918 12.936 14.9817C13.0331 14.8686 13.0979 14.7555 13.2112 14.6747C13.3245 14.5777 13.3569 14.4161 13.4379 14.3191C13.8588 13.8666 14.0369 13.3171 14.2636 12.7514C14.4255 12.3151 14.5388 11.911 14.6197 11.4747C14.7007 11.006 14.7978 10.6342 14.8464 10.1979C14.9274 9.47061 15.1378 8.01607 15.3159 7.62819C15.3969 7.46657 15.6883 5.93122 17.0969 4.44435C17.7445 3.76556 18.2949 3.3292 18.554 3.15142C19.0235 2.82819 19.7682 2.48879 20.0597 2.34334C21.4358 1.68071 21.4358 1.79384 22.2453 1.50293C23.3625 1.08273 25.3539 1.14738 25.6453 1.1797C26.1634 1.24435 26.471 1.26051 26.8919 1.32516C28.0253 1.48677 28.9805 1.81 29.9195 2.13324C30.9071 2.47263 31.7004 2.87667 32.4614 3.31303C33.3195 3.81404 34.0804 4.41202 34.7604 4.96152C35.3918 5.47869 35.9261 6.07667 36.3632 6.67465C36.6061 6.99788 36.8166 7.19182 36.9299 7.46657C37.027 7.70899 39.326 11.7817 35.2461 11.911C34.1128 11.9433 32.9795 12.008 32.1376 11.911C31.7814 11.8625 31.4738 11.9757 31.3604 12.1373C31.0366 12.6544 30.8262 13.0585 30.4214 13.3009C29.5148 13.8666 28.4948 14.2383 27.41 14.4969C27.1186 14.5615 26.8919 14.7231 26.7948 14.8848C26.5843 15.2565 26.6167 15.7898 26.5196 16.1615C26.39 16.614 26.131 16.8888 25.9205 17.1959C25.6939 17.5353 25.3215 17.6807 25.0948 17.9231C24.8358 18.1979 25.1596 18.7151 25.0624 19.0544C24.9653 19.41 24.9005 19.6686 24.7386 19.8464C24.2044 20.4282 23.5406 20.8484 22.9253 21.2848C22.7472 21.414 22.6339 21.608 22.6177 21.7696C22.5692 22.2383 22.7472 22.5777 22.7958 22.8363C22.9415 23.6767 22.6501 24.21 22.3425 24.7272C22.0349 25.2767 21.6625 25.7938 21.193 26.1494C20.8692 26.3918 20.5454 26.6504 20.2216 26.7635C19.9463 26.8605 19.1368 27.2161 19.0073 27.2645C18.2626 27.5393 17.8416 27.8464 16.7407 27.8464C16.2712 27.8464 16.0445 27.911 14.4417 27.7979C13.5026 27.7332 12.5636 27.6686 11.7703 27.5716C9.82744 27.3292 9.66554 26.5858 9.61697 26.3918ZM19.6063 34.5858C19.0235 34.4565 18.5864 34.1171 18.1978 33.7938C17.534 33.2444 17.0483 32.5979 16.4978 32.0645C15.8988 31.4989 15.2835 30.9979 14.6521 30.5938C14.1664 30.2868 13.5836 30.0928 13.0007 29.8827C12.7741 29.8019 12.4664 29.7696 12.3045 29.7373C12.0293 29.705 11.6246 29.7696 11.495 29.6888C12.1588 29.4464 12.7255 29.0262 13.3893 28.9615C13.8912 28.913 14.5064 29.01 14.9597 29.0262C15.7369 29.0585 16.1092 29.0747 16.5302 29.0585C16.8216 29.0585 17.3235 29.0585 17.5664 29.0423C17.793 29.0423 17.8092 29.3494 17.9226 29.4625C18.0845 29.6403 18.133 29.8019 18.214 29.9312C18.554 30.4807 18.6997 31.0625 18.9102 31.6282C19.2502 32.4848 19.5092 33.406 19.6387 34.2464C19.6387 34.4403 19.7197 34.6019 19.6063 34.5858ZM27.9119 32.3878C28.2357 32.6787 28.4462 33.0342 28.5919 33.3575C28.9157 34.0848 29.0938 34.6827 29.2071 35.4423C29.0129 35.3292 28.6891 35.0706 28.511 34.9252C28.2519 34.7151 27.9767 34.5534 27.7824 34.3757C27.1348 33.7454 26.7462 32.905 26.2281 32.2423C26.4224 31.4342 26.2767 31.5959 26.4548 31.6282C27.07 31.7252 27.5234 32.0484 27.9119 32.3878ZM37.8527 13.0262C37.8203 13.3817 37.7718 13.5595 37.7394 13.8342C37.6584 14.4161 37.5613 14.9817 37.4965 15.4666C37.367 16.4524 37.2213 17.3413 37.0918 18.1171C36.9299 19.0706 36.768 19.9433 36.6546 20.7353C36.4927 21.8181 36.6223 23.0464 36.3308 23.8706C36.2337 24.1292 35.9747 24.3393 35.7156 24.3878C35.1166 24.5171 34.4366 24.2423 33.9347 24.3716C33.6918 24.4363 33.5785 25.0504 33.6433 25.2767C33.6918 25.4221 33.3357 25.406 33.2871 25.4221C33.1576 25.4383 33.0442 25.3898 32.8985 25.4706C32.688 25.5676 32.9471 26.2464 32.7852 26.3595C32.688 26.4241 32.7042 26.4403 32.6395 26.4565C32.4938 26.5211 32.2995 26.4888 32.17 26.4241C32.0566 26.3757 31.7328 26.311 31.7166 26.3918C31.6195 26.7151 31.6033 26.909 31.5547 27.1514C31.5062 27.3454 31.409 27.7009 31.3766 27.7979C31.2795 28.0403 31.15 28.1858 31.0366 28.3474C30.8262 28.6383 30.5024 28.8645 30.2595 28.9938C29.9033 29.1878 29.5148 29.1878 29.1262 29.2201C28.3814 29.2686 27.6529 29.1231 27.0053 28.9777C26.7462 28.913 26.4386 28.8161 26.2443 28.7514C25.8558 28.6221 25.5805 28.412 25.3053 28.2989C24.9167 28.1373 24.4634 27.7494 24.2529 27.6524C24.3015 27.7979 24.3501 27.8949 24.3986 27.9595C24.7063 28.7514 26.1634 29.414 26.1634 29.414C25.9205 29.8666 25.3053 32.6302 25.3377 32.6949C25.872 33.5514 26.3091 34.1494 26.471 34.3918C26.9243 35.0545 27.2805 35.6039 27.6529 36.2019C28.3329 37.3009 28.9481 38.4646 29.369 39.5959C29.5633 40.1292 29.7738 40.5332 29.8871 40.9858C29.7414 40.9858 29.5633 40.711 29.4338 40.6302C29.2395 40.5009 29.11 40.3555 28.9643 40.21C28.4948 39.7736 27.9929 39.3534 27.5072 39.0464C26.471 38.3837 25.4348 37.8019 24.3825 37.2039C23.8482 36.8969 23.2653 36.606 22.812 36.3151C22.2615 35.9757 21.7596 35.6848 21.2901 35.3615C21.1282 35.2484 20.9987 34.1494 20.9825 33.9716C20.8854 33.0666 20.4968 32.3716 20.3349 31.6443C20.2054 31.0464 19.7197 30.3353 19.493 29.6565C19.1692 28.6706 18.9749 28.6383 19.0073 28.6383C19.9301 28.3312 21.0958 27.7817 21.7273 27.41C22.4558 26.9898 22.7634 26.6827 23.1034 26.214C23.5244 25.6161 23.9129 25.0342 24.1396 24.3716C24.2691 24.0161 24.1558 23.6605 24.0425 23.3534C23.9453 23.0787 23.6053 22.4969 23.9291 22.3676C24.8682 21.9797 25.6453 21.511 26.0986 20.7676C26.2767 20.4605 26.3415 20.2019 26.4062 19.8464C26.471 19.507 26.3253 19.2484 26.2605 18.9252C26.73 18.6019 27.1672 18.2625 27.4748 17.8585C27.7015 17.5676 27.8957 17.2443 27.9767 16.8888C28.0738 16.4524 28.0414 16.113 27.9605 15.7575C28.2034 15.7252 28.3491 15.709 28.511 15.709C28.6891 15.709 28.8024 15.6443 28.9481 15.6282C29.1424 15.612 29.3043 15.5312 29.3852 15.4989C30.1462 15.1918 30.8424 14.8524 31.3766 14.4322C31.7976 14.0928 32.2185 13.6565 32.4938 13.2201C33.9833 13.2848 35.6509 13.2363 36.8813 12.913C37.3184 12.7999 37.7556 12.5575 37.9984 12.2989C38.047 12.509 37.8689 12.8161 37.8527 13.0262Z" fill="#898987"/>
<path d="M0.24292 52.6869V52.3152H120.892V52.6869H0.24292Z" fill="#898987"/>
<path d="M50.5944 17.0344C52.5372 17.0344 54.4801 17.0667 56.4229 17.0344L56.0667 19.0385L53.4763 19.5718C51.6953 27.0708 50.1249 35.6526 48.943 45.3173L51.3715 45.7859L51.0477 47.79C49.1373 47.7738 47.243 47.7738 45.3002 47.7738C43.3574 47.7738 41.4955 47.7738 39.3584 47.7577L39.7146 45.7536L42.3374 45.3173C44.685 34.5375 46.0935 25.9072 46.8221 19.5718L44.3936 19.0385L44.7497 17.0344C46.8059 17.0667 48.6516 17.0344 50.5944 17.0344Z" fill="#898987"/>
<path d="M65.2628 17.0345C66.8818 17.0345 68.4199 17.1314 69.9579 17.0345C70.6865 25.0345 71.5284 32.5335 72.4674 39.4991C75.7055 33.1314 79.1864 25.7133 82.813 17.0345C84.5453 17.1314 86.2453 17.0345 87.9129 17.0345C89.6129 17.0345 91.2805 17.0668 92.8833 17.0345L92.5109 19.0385L89.7262 19.4749C88.0262 28.9456 86.731 37.5759 85.8405 45.3173L88.5119 45.7537L88.1395 47.7739C86.2777 47.7739 84.4482 47.7739 82.5053 47.7739C79.8178 47.7739 77.9235 47.7739 76.5473 47.7739L76.9035 45.7537L79.494 45.3173C80.9511 38.4001 82.3273 30.7557 83.6549 22.4163C79.4454 30.6102 75.5112 39.0466 71.755 47.7739C70.4113 47.8223 68.9703 47.483 67.7075 47.7739C66.9465 38.7072 66.0723 30.4971 65.0199 22.2062C63.3685 30.0446 61.8628 37.7537 60.5676 45.3011L62.9961 45.7375L62.6237 47.7577C61.1828 47.7739 59.7743 47.7577 58.3172 47.7577C56.86 47.7577 55.4191 47.7577 53.8972 47.7415L54.2534 45.7375L56.8438 45.3011C58.9809 36.9617 60.8104 28.3314 62.4295 19.4587L60.0495 19.0223L60.4057 17.0183C62.0895 17.083 63.6923 17.0345 65.2628 17.0345Z" fill="#898987"/>
<path d="M110.045 17.0344H100.12C98.8737 17.0344 97.53 17.0667 96.089 17.0344L95.7652 19.0385L98.2261 19.4748C97.1738 28.1051 95.6843 36.7354 93.7414 45.3172L91.0377 45.7536L90.7139 47.7738H103.439C108.976 47.7738 113.121 46.5779 116.359 43.297C120.115 39.4183 122.188 34.2789 122.188 28.9779C122.155 21.3011 117.93 17.0344 110.045 17.0344ZM110.223 42.489C108.766 43.7172 107.034 44.3476 105.01 44.3476C103.52 44.3476 102.063 44.1051 100.606 43.5072C101.578 36.1051 102.905 28.5577 104.605 20.897C105.933 20.6061 107.115 20.4607 108.086 20.4607C112.862 20.4607 115.485 23.693 115.485 29.3334C115.485 34.7476 113.461 39.7415 110.223 42.489Z" fill="#898987"/>
<path d="M67.7075 47.8061H71.7551L69.0513 47.4829L67.7075 47.8061Z" fill="#898987"/>
<path d="M6.34657 57.907C5.74753 57.6161 5.05135 57.5191 4.38755 57.5191C2.26663 57.5191 0.74475 58.8929 0.74475 60.8969C0.74475 62.303 1.81331 63.4181 3.33519 63.4181C4.09613 63.4181 4.51707 63.2403 4.75993 63.1272L5.27801 60.7676H3.49709L3.6428 60.1858H6.1361L5.37516 63.6605C5.09992 63.7252 4.54945 63.9999 3.36757 63.9999C1.3276 63.9999 0 62.7393 0 60.8161C0 58.5211 1.91045 56.9211 4.29041 56.9211C5.01897 56.9211 5.77991 57.0019 6.54085 57.2605L6.34657 57.907Z" fill="#898987"/>
<path d="M8.9855 57.0344H12.5959L12.4826 57.6324H9.56835L9.03408 60.0728H11.7702L11.6569 60.6546H8.90455L8.32171 63.3051H11.3331L11.2359 63.8869H7.46362L8.9855 57.0344Z" fill="#898987"/>
<path d="M15.8989 57.0344H14.5875L13.0332 63.8869H15.2513C17.9388 63.8869 19.4607 62.2223 19.4607 59.7819C19.4607 57.7132 17.8579 57.0344 15.8989 57.0344ZM15.1865 63.3051H13.8913L15.2027 57.6324H16.1255C17.696 57.6324 18.7484 58.2627 18.7484 59.7981C18.7322 62.0122 17.4046 63.3051 15.1865 63.3051Z" fill="#898987"/>
<path d="M23.5729 60.4282V60.412C24.7224 60.3636 25.6453 59.7009 25.6453 58.5858C25.6453 57.406 24.7872 57.0181 23.6215 57.0504H21.9539L20.3511 63.903H21.0796L21.8082 60.6706H22.6663C23.2491 60.6706 23.5082 60.8161 23.6701 61.3494L24.3177 63.8868H25.0301L24.3339 61.2524C24.2529 60.8807 24.1882 60.5252 23.5729 60.4282ZM22.7472 60.0727H21.9863L22.5368 57.6322H23.6053C24.3501 57.6322 24.9329 57.8908 24.9329 58.6666C24.9167 59.7656 23.7186 60.0727 22.7472 60.0727Z" fill="#898987"/>
<path d="M28.0413 57.0344H31.6518L31.5384 57.6324H28.6242L28.0899 60.0728H30.8422L30.7289 60.6546H27.9766L27.3775 63.3051H30.4051L30.2918 63.8869H26.5356L28.0413 57.0344Z" fill="#898987"/>
<path d="M34.7929 63.8869H33.9996L32.8015 57.0344H33.5139L34.5177 63.2082H34.5339L38.3386 57.0344H39.0833L34.7929 63.8869Z" fill="#898987"/>
<path d="M40.3622 57.0344H43.9726L43.8593 57.6324H40.9451L40.4108 60.0728H43.1469L43.0336 60.6546H40.2813L39.6984 63.3051H42.7098L42.6127 63.8869H38.8403L40.3622 57.0344Z" fill="#898987"/>
<path d="M45.9156 57.0344H46.7737L49.2184 63.0627H49.2346L50.6107 57.0344H51.2745L49.7203 63.8869H48.846L46.4013 57.8587H46.3851L44.9927 63.8869H44.3127L45.9156 57.0344Z" fill="#898987"/>
<path d="M57.8476 57.0344H56.5362L54.9819 63.8869H57.2C59.8876 63.8869 61.4095 62.2223 61.4095 59.7819C61.4095 57.7132 59.8066 57.0344 57.8476 57.0344ZM57.1352 63.3051H55.84L57.1514 57.6324H58.0743C59.6447 57.6324 60.6971 58.2627 60.6971 59.7981C60.6809 62.0122 59.3533 63.3051 57.1352 63.3051Z" fill="#898987"/>
<path d="M66.5256 56.9211C64.0809 56.9211 62.6238 59.0383 62.6238 61.204C62.6238 62.8686 63.5952 63.9999 65.4085 63.9999C67.8532 63.9999 69.3103 61.8828 69.3103 59.7171C69.3103 58.0525 68.3389 56.9211 66.5256 56.9211ZM65.4247 63.4181C64.0323 63.4181 63.3523 62.4323 63.3523 61.1555C63.3523 59.4747 64.5342 57.5191 66.5094 57.5191C67.9018 57.5191 68.5818 58.505 68.5818 59.7817C68.5818 61.4626 67.3837 63.4181 65.4247 63.4181Z" fill="#898987"/>
<path d="M74.4265 56.9211C71.9818 56.9211 70.5247 59.0383 70.5247 61.204C70.5247 62.8686 71.4961 63.9999 73.2932 63.9999C75.7379 63.9999 77.195 61.8828 77.195 59.7171C77.2112 58.0525 76.2398 56.9211 74.4265 56.9211ZM73.3256 63.4181C71.9332 63.4181 71.2532 62.4323 71.2532 61.1555C71.2532 59.4747 72.4351 57.5191 74.4103 57.5191C75.8027 57.5191 76.4827 58.505 76.4827 59.7817C76.4827 61.4626 75.3008 63.4181 73.3256 63.4181Z" fill="#898987"/>
<path d="M81.3234 60.4282V60.412C82.4729 60.3636 83.3958 59.7009 83.3958 58.5858C83.3958 57.406 82.5377 57.0181 81.372 57.0504H79.7044L78.1016 63.903H78.8301L79.5587 60.6706H80.4168C80.9996 60.6706 81.2586 60.8161 81.4206 61.3494L82.0682 63.8868H82.7805L82.0844 61.2524C82.0196 60.8807 81.9386 60.5252 81.3234 60.4282ZM80.4977 60.0727H79.7368L80.2872 57.6322H81.3558C82.1005 57.6322 82.6834 57.8908 82.6834 58.6666C82.6834 59.7656 81.4853 60.0727 80.4977 60.0727Z" fill="#898987"/>
<path d="M88.2368 57.0344H88.933L89.4511 63.1274H89.4673L92.6891 57.0344H93.5634L93.9843 63.1274H94.0005L97.2548 57.0344H97.9833L94.2596 63.8869H93.3853L92.9967 57.8102H92.9644L89.7587 63.8869H88.8844L88.2368 57.0344Z" fill="#898987"/>
<path d="M102.096 57.0344H101.237L96.688 63.8869H97.4651L98.6794 62.0445H102.436L102.808 63.8869H103.536L102.096 57.0344ZM99.0518 61.4627L101.529 57.7132L102.29 61.4627H99.0518Z" fill="#898987"/>
<path d="M104.977 57.0344H110.158L110.045 57.6324H107.811L106.402 63.8869H105.641L107.082 57.6324H104.848L104.977 57.0344Z" fill="#898987"/>
<path d="M111.389 57.0344H115.015L114.902 57.6324H111.988L111.454 60.0728H114.19L114.076 60.6546H111.324L110.741 63.3051H113.753L113.639 63.8869H109.883L111.389 57.0344Z" fill="#898987"/>
<path d="M118.658 60.4282V60.412C119.808 60.3636 120.73 59.7009 120.73 58.5858C120.73 57.406 119.872 57.0181 118.707 57.0504H117.055L115.452 63.903H116.181L116.91 60.6706H117.768C118.35 60.6706 118.609 60.8161 118.771 61.3494L119.419 63.8868H120.131L119.435 61.2524C119.338 60.8807 119.273 60.5252 118.658 60.4282ZM117.832 60.0727H117.055L117.606 57.6322H118.674C119.419 57.6322 120.002 57.8908 120.002 58.6666C120.002 59.7656 118.804 60.0727 117.832 60.0727Z" fill="#898987"/>
</g>
<defs>
<clipPath id="clip0">
<rect width="122.155" height="64" fill="white"/>
</clipPath>
</defs>
</svg>
