<svg width="135" height="64" viewBox="0 0 135 64" fill="none" xmlns="http://www.w3.org/2000/svg">
<g clip-path="url(#clip0)">
<path d="M18.358 44.9684L27.7896 20.8842H33.5159L42.9475 44.9684H37.558L35.0317 38.5684H25.0948L22.5685 44.9684H18.358ZM26.1054 35.3684H33.6843L29.9791 25.7684L26.1054 35.3684ZM0.505371 44.8V40.5895C2.358 41.4316 3.87379 41.9368 4.7159 41.9368C5.72642 42.1053 6.56853 42.1053 7.24221 42.1053C8.58958 42.1053 9.76853 41.7684 10.4422 41.0947C11.1159 40.4211 11.4527 39.7474 11.4527 38.9053C11.4527 38.2316 11.2843 37.5579 10.9475 37.0526C10.6106 36.5474 9.60011 35.8737 8.08432 35.0316L6.40011 34.1895C4.04221 32.8421 2.52642 31.6632 1.68432 30.6526C0.842213 29.4737 0.505371 28.2947 0.505371 26.7789C0.505371 24.9263 1.17906 23.4105 2.52642 22.0632C3.87379 20.7158 5.89484 20.0421 8.58958 20.0421C10.6106 20.0421 12.8001 20.3789 15.158 20.8842V24.7579C12.6317 24.0842 10.6106 23.5789 9.26327 23.5789C8.08432 23.5789 7.07379 23.9158 6.56853 24.4211C5.89485 24.9263 5.558 25.6 5.558 26.2737C5.558 26.7789 5.72642 27.4526 6.06327 27.7895C6.40011 28.2947 7.41063 28.9684 8.92642 29.8105L10.6106 30.8211C13.3054 32.3368 14.9896 33.6842 15.6633 34.6947C16.5054 35.8737 16.8422 37.0526 16.8422 38.4C16.8422 40.4211 16.1685 42.1053 14.6527 43.4526C13.137 44.8 10.7791 45.4737 7.41063 45.4737C5.38958 45.6421 3.20011 45.3053 0.505371 44.8ZM75.4527 44.9684V20.8842H80.5054V44.9684H75.4527ZM97.6843 45.6421C95.158 45.6421 92.9685 45.1368 91.1159 44.1263C89.2633 43.1158 87.9159 41.6 86.9054 39.5789C85.8949 37.5579 85.3896 35.3684 85.3896 33.0105C85.3896 30.4842 85.8949 28.2947 86.9054 26.4421C87.9159 24.5895 89.2633 22.9053 91.1159 21.8947C92.9685 20.8842 95.158 20.3789 97.6843 20.3789C100.211 20.3789 102.4 20.8842 104.253 21.8947C106.105 22.9053 107.621 24.4211 108.463 26.4421C109.474 28.4632 109.979 30.6526 109.979 33.0105C109.979 35.5368 109.474 37.7263 108.463 39.5789C107.453 41.6 106.105 42.9474 104.253 44.1263C102.4 45.1368 100.211 45.6421 97.6843 45.6421ZM97.6843 42.2737C100.042 42.2737 101.726 41.2632 102.905 39.4105C104.084 37.5579 104.59 35.3684 104.59 32.8421C104.59 30.3158 104.084 28.1263 102.905 26.2737C101.726 24.4211 100.042 23.5789 97.6843 23.5789C95.3264 23.5789 93.6422 24.5895 92.4633 26.4421C91.2843 28.2947 90.7791 30.4842 90.7791 33.0105C90.7791 35.5368 91.2843 37.5579 92.4633 39.5789C93.6422 41.2632 95.3264 42.2737 97.6843 42.2737ZM115.032 44.9684V20.8842H119.747L130.358 36.7158V20.8842H134.232V44.9684H130.021L118.905 28.4632V44.9684H115.032ZM47.4949 24.2526C46.1475 27.6211 45.3054 31.3263 45.3054 35.0316C45.3054 37.3895 45.6422 39.7474 46.1475 41.9368L54.9054 33.1789L47.4949 24.2526ZM74.1054 6.06316C70.0633 6.06316 65.6843 7.07368 61.9791 8.92632C56.4212 3.2 49.1791 0 41.4317 0H41.2633V4.88421H41.4317C47.3264 4.88421 53.0527 7.24211 57.2633 11.4526L57.4317 11.6211H57.2633C53.8949 14.1474 51.0317 17.1789 49.0106 20.8842H51.7054L58.6106 29.1368L64.5054 23.2421H62.4843V20.8842H68.3791C67.7054 18.1895 66.5264 15.4947 64.8422 13.1368V12.9684H65.0106C67.8738 11.7895 71.0738 11.1158 73.937 11.1158H75.2843V6.06316H74.1054ZM61.3054 32.1684L67.3685 39.4105C68.8843 36.0421 69.558 32.1684 69.558 28.4632C69.558 26.9474 69.3896 25.6 69.2212 24.2526L61.3054 32.1684ZM74.1054 59.1158C67.8738 59.1158 61.6422 56.4211 57.2633 51.8737L57.0949 51.7053H57.2633C60.1264 49.6842 62.4843 47.3263 64.5054 44.6316L57.4317 36.2105L50.6949 43.1158H52.7159V45.1368H47.158C47.8317 46.8211 48.6738 48.5053 49.5159 50.1895V50.3579H49.3475C46.8212 51.3684 44.1264 51.8737 41.2633 51.8737H41.0948V56.7579H41.2633C45.137 56.7579 48.8422 55.9158 52.3791 54.4C58.1054 60.2947 66.0212 64 74.1054 64H75.4527V59.1158H74.1054Z" fill="#898987"/>
</g>
<defs>
<clipPath id="clip0">
<rect width="134.737" height="64" fill="white"/>
</clipPath>
</defs>
</svg>
