<svg width="96" height="96" viewBox="0 0 96 96" fill="none" xmlns="http://www.w3.org/2000/svg">
<g filter="url(#filter0_d)">
<path d="M42.647 13.6587L46.4135 12.8554L52.0575 12.2038L54.0281 12.2038C55.3729 12.2038 56.7095 12.4125 57.9902 12.8223L66.2017 15.45C67.7583 15.9481 69.2069 16.7352 70.4718 17.7701L77.4055 23.4431C78.8241 24.6038 79.9812 26.0514 80.8009 27.6908L83.3784 32.8457C83.8296 33.7481 84.1742 34.6999 84.4052 35.682L85.4597 40.1634C85.8543 41.8403 85.9116 43.5789 85.6284 45.2781L84.3494 52.9525C84.1557 54.1147 83.8049 55.2451 83.3066 56.3128L81.3251 60.559C80.8158 61.6503 80.1574 62.6655 79.3686 63.5755L75.0319 68.5795C74.3844 69.3266 73.6538 69.9974 72.8542 70.579L69.4276 73.071C68.8485 73.4922 68.2356 73.8648 67.5951 74.185L63.5574 76.2039L61.9455 76.8486C61.3543 77.0851 60.7454 77.2747 60.1245 77.4156L33.994 79.6367C25.0207 80.3995 18.0089 72.0283 20.3335 63.3279L30.5264 25.1769C32.0795 19.3639 36.7625 14.9137 42.647 13.6587Z" fill="url(#paint0_linear)"/>
</g>
<path fill-rule="evenodd" clip-rule="evenodd" d="M37.627 29.044H45.627V48.5977L64.8512 29.3734L70.508 35.0303L60.3101 45.2282L70.508 55.4261L64.8512 61.0829L54.6533 50.8851L45.627 59.9114V90.6229H37.627V29.044Z" fill="url(#paint1_linear)"/>
<path fill-rule="evenodd" clip-rule="evenodd" d="M77.7237 39.942C74.8553 26.4361 61.5814 17.8126 48.0755 20.681L46.4136 12.8555C64.2414 9.06932 81.7629 20.4523 85.5491 38.2801C89.3353 56.1079 77.9523 73.6294 60.1245 77.4156L58.4626 69.5902C71.9685 66.7218 80.592 53.4479 77.7237 39.942Z" fill="url(#paint2_linear)"/>
<defs>
<filter id="filter0_d" x="18.8838" y="11.2039" width="67.9213" height="69.4813" filterUnits="userSpaceOnUse" color-interpolation-filters="sRGB">
<feFlood flood-opacity="0" result="BackgroundImageFix"/>
<feColorMatrix in="SourceAlpha" type="matrix" values="0 0 0 0 0 0 0 0 0 0 0 0 0 0 0 0 0 0 127 0"/>
<feOffset/>
<feGaussianBlur stdDeviation="0.5"/>
<feColorMatrix type="matrix" values="0 0 0 0 0 0 0 0 0 0 0 0 0 0 0 0 0 0 0.25 0"/>
<feBlend mode="normal" in2="BackgroundImageFix" result="effect1_dropShadow"/>
<feBlend mode="normal" in="SourceGraphic" in2="effect1_dropShadow" result="shape"/>
</filter>
<linearGradient id="paint0_linear" x1="23.0574" y1="72.7039" x2="74.0574" y2="31.7039" gradientUnits="userSpaceOnUse">
<stop stop-color="#3377FF"/>
<stop offset="1" stop-color="#36ABFF"/>
</linearGradient>
<linearGradient id="paint1_linear" x1="57.5" y1="45" x2="38" y2="91" gradientUnits="userSpaceOnUse">
<stop stop-color="#262626"/>
<stop offset="1"/>
</linearGradient>
<linearGradient id="paint2_linear" x1="60.5002" y1="77" x2="73.0002" y2="31.5" gradientUnits="userSpaceOnUse">
<stop/>
<stop offset="1" stop-color="#262626"/>
</linearGradient>
</defs>
</svg>
