<svg width="76" height="72" viewBox="0 0 76 72" fill="none" xmlns="http://www.w3.org/2000/svg">
<g filter="url(#filter0_d)">
<path d="M46.5018 29.2727V6H73.4133C73.4133 7.62368 73.3685 10.6004 73.2788 14.9302C73.1891 19.26 73.0994 22.3721 73.0097 24.2664C72.92 26.0705 72.6957 28.9119 72.3369 32.7907C72.0678 36.5793 71.6641 39.5109 71.1258 41.5856C70.6773 43.5701 69.9597 46.1409 68.9729 49.2981C68.0759 52.4552 66.9097 55.0712 65.4744 57.1459C64.1289 59.2206 62.4245 61.4306 60.3612 63.7759C58.3877 66.1212 56.1003 68.1959 53.4988 70L46.6364 61.4757C48.9687 59.4912 51.301 55.883 53.6334 50.6512C55.9657 45.3291 57.2216 39.0599 57.401 31.8436L46.5018 29.2727ZM6 29.2727V6H33.0461C33.0461 7.9845 33.0012 11.4123 32.9115 16.2833C32.9115 21.0641 32.8667 24.6272 32.777 26.9725C32.6872 29.2276 32.463 32.3848 32.1042 36.444C31.835 40.5032 31.252 43.7956 30.3549 46.3214C29.5476 48.7569 28.4711 51.5532 27.1255 54.7104C25.78 57.8675 23.9859 60.6638 21.7432 63.0994C19.5903 65.5349 17.0337 67.8351 14.0735 70L7.34558 61.4757C9.67791 59.401 12.0102 55.7477 14.3426 50.5159C16.6749 45.1938 17.9308 38.9246 18.1102 31.7082L15.1499 31.167C13.0867 30.8062 11.0235 30.4003 8.96027 29.9493L6 29.2727Z" fill="url(#paint0_linear)"/>
</g>
<defs>
<filter id="filter0_d" x="0" y="0" width="75.4133" height="72" filterUnits="userSpaceOnUse" color-interpolation-filters="sRGB">
<feFlood flood-opacity="0" result="BackgroundImageFix"/>
<feColorMatrix in="SourceAlpha" type="matrix" values="0 0 0 0 0 0 0 0 0 0 0 0 0 0 0 0 0 0 127 0"/>
<feOffset dx="-2" dy="-2"/>
<feGaussianBlur stdDeviation="2"/>
<feColorMatrix type="matrix" values="0 0 0 0 0.211765 0 0 0 0 0.670588 0 0 0 0 1 0 0 0 0.15 0"/>
<feBlend mode="normal" in2="BackgroundImageFix" result="effect1_dropShadow"/>
<feBlend mode="normal" in="SourceGraphic" in2="effect1_dropShadow" result="shape"/>
</filter>
<linearGradient id="paint0_linear" x1="73.4133" y1="6.00001" x2="-1.48945" y2="16.8784" gradientUnits="userSpaceOnUse">
<stop stop-color="#3377FF"/>
<stop offset="1" stop-color="#36ABFF"/>
</linearGradient>
</defs>
</svg>
