<svg width="68" height="64" viewBox="0 0 68 64" fill="none" xmlns="http://www.w3.org/2000/svg">
<path d="M40.5018 23.2727V0H67.4133C67.4133 1.62368 67.3685 4.60042 67.2788 8.93023C67.1891 13.26 67.0994 16.3721 67.0097 18.2664C66.92 20.0705 66.6957 22.9119 66.3369 26.7907C66.0678 30.5793 65.6641 33.5109 65.1258 35.5856C64.6773 37.5701 63.9597 40.1409 62.9729 43.2981C62.0759 46.4552 60.9097 49.0712 59.4744 51.1459C58.1289 53.2206 56.4245 55.4306 54.3612 57.7759C52.3877 60.1212 50.1003 62.1959 47.4988 64L40.6364 55.4757C42.9687 53.4912 45.301 49.883 47.6334 44.6512C49.9657 39.3291 51.2216 33.0599 51.401 25.8436L40.5018 23.2727ZM0 23.2727V0H27.0461C27.0461 1.9845 27.0012 5.41226 26.9115 10.2833C26.9115 15.0641 26.8667 18.6272 26.777 20.9725C26.6872 23.2276 26.463 26.3848 26.1042 30.444C25.835 34.5032 25.252 37.7956 24.3549 40.3214C23.5476 42.7569 22.4711 45.5532 21.1255 48.7104C19.78 51.8675 17.9859 54.6638 15.7432 57.0994C13.5903 59.5349 11.0337 61.8351 8.07345 64L1.34558 55.4757C3.67791 53.401 6.01024 49.7477 8.34257 44.5159C10.6749 39.1938 11.9308 32.9246 12.1102 25.7082L9.14991 25.167C7.0867 24.8062 5.02348 24.4003 2.96027 23.9493L0 23.2727Z" fill="url(#paint0_linear)"/>
<defs>
<linearGradient id="paint0_linear" x1="67.4133" y1="6.7488e-06" x2="-7.48945" y2="10.8784" gradientUnits="userSpaceOnUse">
<stop stop-color="#3377FF"/>
<stop offset="1" stop-color="#36ABFF"/>
</linearGradient>
</defs>
</svg>
