<svg width="24" height="24" viewBox="0 0 24 24" fill="none" xmlns="http://www.w3.org/2000/svg">
<path fill-rule="evenodd" clip-rule="evenodd" d="M18.5446 19.0678L19.9605 3.20803L19.979 3H19.7704H4.2296H4.021L4.03952 3.20803L5.45383 19.0704L5.46562 19.2027L5.59303 19.2379L11.9396 20.9998H12.0415L18.4054 19.2354L18.5328 19.2001L18.5446 19.0678Z" fill="#1572B6"/>
<path fill-rule="evenodd" clip-rule="evenodd" d="M18.7492 4.125H12V19.8452L17.4816 18.3253L18.7492 4.125Z" fill="#35A8DB"/>
<path fill-rule="evenodd" clip-rule="evenodd" d="M11.9927 8.34798L7.23242 10.3305L7.39032 12.2933L11.9927 10.3255L16.8885 8.23239L17.0914 6.22449L11.9927 8.34798Z" fill="#E9E9E8"/>
<path fill-rule="evenodd" clip-rule="evenodd" d="M11.9927 6.22461H12.028H12.0681H12.1082H12.1484H12.1886H12.2288H12.269H12.3092H12.3494H12.3896H12.4298H12.47H12.5102H12.5504H12.5906H12.6308H12.6708H12.711H12.7512H12.7914H12.8316H12.8718H12.912H12.9522H12.9924H13.0326H13.0728H13.1129H13.1531H13.1933H13.2335H13.2737H13.3138H13.354H13.3942H13.4344H13.4746H13.5148H13.555H13.5952H13.6354H13.6756H13.7157H13.7559H13.7961H13.8363H13.8765H13.9167H13.9569H13.9971H14.0372H14.0774H14.1176H14.1578H14.198H14.2381H14.2783H14.3185H14.3587H14.3989H14.4391H14.4793H14.5195H14.5597H14.5999H14.6401H14.6803H14.7203H14.7605H14.8007H14.8409H14.8811H14.9213H14.9615H15.0017H15.0419H15.0821H15.1223H15.1625H15.2027H15.2429H15.283H15.3231H15.3633H15.4035H15.4437H15.4839H15.5241H15.5643H15.6045H15.6447H15.6849H15.7251H15.7652H15.8054H15.8456H15.8858H15.926H15.9662H16.0063H16.0465H16.0867H16.1269H16.1671H16.2073H16.2475H16.2877H16.3278H16.368H16.4082H16.4484H16.4886H16.5288H16.569H16.6092H16.6494H16.6896H16.7297H16.7699H16.8101H16.8503H16.8904H16.9306H16.9708H17.011H17.0512H17.0914L17.0512 6.62204L17.011 7.01943L16.9708 7.41683L16.9306 7.81435L16.8904 8.21176L16.8884 8.23242H16.8503H16.8101H16.7699H16.7297H16.6896H16.6494H16.6092H16.569H16.5288H16.4886H16.4484H16.4082H16.368H16.3278H16.2877H16.2475H16.2073H16.1671H16.1269H16.0867H16.0465H16.0063H15.9662H15.926H15.8858H15.8456H15.8054H15.7652H15.7251H15.6849H15.6447H15.6045H15.5643H15.5241H15.4839H15.4437H15.4035H15.3633H15.3231H15.283H15.2429H15.2027H15.1625H15.1223H15.0821H15.0419H15.0017H14.9615H14.9213H14.8811H14.8409H14.8007H14.7605H14.7203H14.6803H14.6401H14.5999H14.5597H14.5195H14.4793H14.4391H14.3989H14.3587H14.3185H14.2783H14.2381H14.198H14.1578H14.1176H14.0774H14.0372H13.9971H13.9569H13.9167H13.8765H13.8363H13.7961H13.7559H13.7157H13.6756H13.6354H13.5952H13.555H13.5148H13.4746H13.4344H13.3942H13.354H13.3138H13.2737H13.2335H13.1933H13.1531H13.1129H13.0728H13.0326H12.9924H12.9522H12.912H12.8718H12.8316H12.7914H12.7512H12.711H12.6708H12.6308H12.5906H12.5504H12.5102H12.47H12.4298H12.3896H12.3494H12.3092H12.2702H12.269H12.2288H12.1886H12.1484H12.1082H12.0681H12.028H11.9985H11.9927H11.9878H11.9476H11.9074H11.8672H11.827H11.7868H11.7466H11.7064H11.6662H11.6261H11.5859H11.5457H11.5055H11.4653H11.4251H11.3849H11.3447H11.3046H11.2644H11.2242H11.184H11.1438H11.1036H11.0634H11.0233H10.9831H10.9429H10.9027H10.8625H10.8223H10.7821H10.742H10.7018H10.6616H10.6214H10.5812H10.541H10.5008H10.4607H10.4205H10.3803H10.3401H10.2999H10.2597H10.2195H10.1793H10.1392H10.099H10.0588H10.0186H9.97841H9.93824H9.89805H9.85786H9.81767H9.77748H9.7373H9.69712H9.65693H9.61674H9.57655H9.53636H9.49618H9.456H9.41581H9.37562H9.33543H9.29525H9.25505H9.21488H9.1747H9.1345H9.09432H9.05412H9.01395H8.97376H8.93357H8.89339H8.8532H8.81302H8.77282H8.73264H8.69246H8.65226H8.61208H8.57191H8.53171H8.49153H8.45133H8.41115H8.37095H8.33078H8.2906H8.2504H8.21022H8.17002H8.12985H8.08966H8.04947H8.00929H7.96909H7.92892H7.88873H7.84854H7.80836H7.76816H7.72798H7.6878H7.64761H7.60742H7.56723H7.52705H7.48686H7.44668H7.4065H7.3663H7.32611H7.28593H7.24575H7.20556H7.16537H7.12519H7.085H7.05183L7.04482 8.17563L7.00463 7.8504L6.96445 7.52527L6.92425 7.20002L6.88407 6.87489L6.84389 6.54976L6.80371 6.22461H6.84389H6.88407H6.92425H6.96445H7.00463H7.04482H7.085H7.12519H7.16537H7.20556H7.24575H7.28593H7.32611H7.3663H7.4065H7.44668H7.48686H7.52705H7.56723H7.60742H7.64761H7.6878H7.72798H7.76816H7.80836H7.84854H7.88873H7.92892H7.96909H8.00929H8.04947H8.08966H8.12985H8.17002H8.21022H8.2504H8.2906H8.33078H8.37095H8.41115H8.45133H8.49153H8.53171H8.57191H8.61208H8.65226H8.69246H8.73264H8.77282H8.81302H8.8532H8.89339H8.93357H8.97376H9.01395H9.05412H9.09432H9.1345H9.1747H9.21488H9.25505H9.29525H9.33543H9.37562H9.41581H9.456H9.49618H9.53636H9.57655H9.61674H9.65693H9.69712H9.7373H9.77748H9.81767H9.85786H9.89805H9.93824H9.97841H10.0186H10.0588H10.099H10.1392H10.1793H10.2195H10.2597H10.2999H10.3401H10.3803H10.4205H10.4607H10.5008H10.541H10.5812H10.6214H10.6616H10.7018H10.742H10.7821H10.8223H10.8625H10.9027H10.9429H10.9831H11.0233H11.0634H11.1036H11.1438H11.184H11.2242H11.2644H11.3046H11.3447H11.3849H11.4251H11.4653H11.5055H11.5457H11.5859H11.6261H11.6662H11.7064H11.7466H11.7868H11.827H11.8672H11.9074H11.9476H11.9878H11.9927Z" fill="#E9E9E8"/>
<path fill-rule="evenodd" clip-rule="evenodd" d="M7.23975 10.3308H16.7155L16.5429 12.316L7.39763 12.2933L7.23975 10.3308Z" fill="#E9E9E8"/>
<path fill-rule="evenodd" clip-rule="evenodd" d="M7.53589 13.3991L9.60871 13.4L9.74396 15.0231L11.9928 15.5808L14.3015 14.9329L14.4577 12.2785L16.549 12.2457L16.174 16.5572L12.0003 17.7756L7.79646 16.5347L7.53589 13.3991Z" fill="#E9E9E8"/>
<path fill-rule="evenodd" clip-rule="evenodd" d="M12.0005 10.3223L16.8887 8.23239L17.0917 6.22449L12.0005 8.34484V10.3223Z" fill="#FFFFFE"/>
<path fill-rule="evenodd" clip-rule="evenodd" d="M12.0002 6.22461H12.028H12.0682H12.1083H12.1485H12.1887H12.2289H12.2691H12.3093H12.3495H12.3897H12.4299H12.47H12.5102H12.5504H12.5906H12.6308H12.6709H12.7111H12.7513H12.7915H12.8317H12.8719H12.9121H12.9523H12.9925H13.0327H13.0729H13.1129H13.1531H13.1933H13.2335H13.2737H13.3139H13.3541H13.3943H13.4345H13.4747H13.5149H13.5551H13.5953H13.6355H13.6757H13.7158H13.7559H13.7961H13.8363H13.8765H13.9167H13.9569H13.9971H14.0373H14.0775H14.1177H14.1579H14.1981H14.2382H14.2784H14.3186H14.3588H14.399H14.4391H14.4793H14.5195H14.5597H14.5999H14.6401H14.6803H14.7204H14.7606H14.8008H14.841H14.8812H14.9214H14.9616H15.0018H15.042H15.0822H15.1224H15.1625H15.2027H15.2429H15.283H15.3232H15.3634H15.4036H15.4438H15.484H15.5242H15.5644H15.6046H15.6448H15.685H15.7252H15.7652H15.8054H15.8456H15.8858H15.926H15.9662H16.0064H16.0466H16.0868H16.127H16.1672H16.2074H16.2476H16.2878H16.3279H16.3681H16.4083H16.4484H16.4886H16.5288H16.569H16.6092H16.6494H16.6896H16.7298H16.77H16.8102H16.8504H16.8905H16.9307H16.9709H17.0111H17.0513H17.0915L17.0513 6.62204L17.0111 7.01943L16.9709 7.41683L16.9307 7.81435L16.8905 8.21176L16.8885 8.23242H16.8504H16.8102H16.77H16.7298H16.6896H16.6494H16.6092H16.569H16.5288H16.4886H16.4484H16.4083H16.3681H16.3279H16.2878H16.2476H16.2074H16.1672H16.127H16.0868H16.0466H16.0064H15.9662H15.926H15.8858H15.8456H15.8054H15.7652H15.7252H15.685H15.6448H15.6046H15.5644H15.5242H15.484H15.4438H15.4036H15.3634H15.3232H15.283H15.2429H15.2027H15.1625H15.1224H15.0822H15.042H15.0018H14.9616H14.9214H14.8812H14.841H14.8008H14.7606H14.7204H14.6803H14.6401H14.5999H14.5597H14.5195H14.4793H14.4391H14.399H14.3588H14.3186H14.2784H14.2382H14.1981H14.1579H14.1177H14.0775H14.0373H13.9971H13.9569H13.9167H13.8765H13.8363H13.7961H13.7559H13.7158H13.6757H13.6355H13.5953H13.5551H13.5149H13.4747H13.4345H13.3943H13.3541H13.3139H13.2737H13.2335H13.1933H13.1531H13.1129H13.0729H13.0327H12.9925H12.9523H12.9121H12.8719H12.8317H12.7915H12.7513H12.7111H12.6709H12.6308H12.5906H12.5504H12.5102H12.47H12.4299H12.3897H12.3495H12.3093H12.2702H12.2691H12.2289H12.1887H12.1485H12.1083H12.0682H12.028H12.0002V6.22461Z" fill="#FFFFFE"/>
<path fill-rule="evenodd" clip-rule="evenodd" d="M12.0002 10.3308H16.7155L16.5429 12.316L12.0002 12.3047V10.3308Z" fill="#FFFFFE"/>
<path fill-rule="evenodd" clip-rule="evenodd" d="M12.0002 15.5787L14.3015 14.9329L14.4577 12.2785L16.549 12.2457L16.174 16.5572L12.0002 17.7756V17.7755V15.5787Z" fill="#FFFFFE"/>
</svg>
