<svg width="174" height="64" viewBox="0 0 174 64" fill="none" xmlns="http://www.w3.org/2000/svg">
<path d="M163.728 45.8057V40.5943H172.148V36.2057H163.728V31.4514H172.789V27.1543H157.596V50.1029H172.88V45.8057H163.728Z" fill="#898987"/>
<path d="M143.502 27.1543H137.371V50.1943H143.502V27.1543Z" fill="#898987"/>
<path d="M108.816 31.6343H114.491V50.1029H120.622V31.6343H126.297V27.1543H108.816V31.6343Z" fill="#898987"/>
<path d="M97.7426 27.1543H91.6108V50.1943H97.7426V27.1543Z" fill="#898987"/>
<path d="M73.0324 27.1543H66.9006V50.1029H81.7268V45.6229H73.0324V27.1543Z" fill="#898987"/>
<path d="M8.69446 40.32H7.13863V31.4514H8.69446C10.7994 31.4514 12.7213 33.4629 12.7213 35.84C12.7213 38.3086 10.8909 40.32 8.69446 40.32ZM8.32838 27.1543H1.00684V50.1943H7.13863V45.0743H8.96902C15.1008 45.2572 18.7616 40.7772 18.6701 36.0229C18.5786 30.72 15.3754 27.1543 8.32838 27.1543Z" fill="#898987"/>
<path d="M46.6751 46.5373C47.4987 47.6344 47.9563 49.0058 47.9563 50.3773C47.9563 54.0344 45.0277 56.9601 41.3669 56.9601C37.7062 56.9601 34.7776 54.0344 34.7776 50.3773C34.7776 48.9144 35.2351 47.6344 36.0588 46.5373L31.2998 42.6058C29.6525 44.8001 28.6458 47.4515 28.6458 50.3773C28.6458 57.4173 34.4115 63.1773 41.4585 63.1773C48.5055 63.1773 54.2712 57.4173 54.2712 50.3773C54.2712 47.4515 53.2645 44.7087 51.6171 42.5144L46.6751 46.5373Z" fill="#898987"/>
<path d="M40.5433 34.3772C40.1772 33.1886 39.9942 32.7315 39.9942 31.1772C39.9942 28.16 43.1973 25.6915 43.1973 25.6915C45.3938 23.7715 46.8581 22.0343 47.1327 20.2972C47.4072 18.6515 46.6751 16.4572 46.6751 16.4572C47.4987 16.7315 47.8648 17.0058 48.2309 17.4629C48.597 17.8286 48.9631 18.4686 48.9631 18.4686C49.4207 17.0058 49.3291 15.9086 49.0546 14.9029C48.78 13.8058 48.3224 12.8001 47.2242 11.7943C45.9429 10.6972 44.9362 10.4229 44.9362 10.4229C45.2108 10.9715 45.3938 11.7943 45.3023 13.4401C45.1192 15.0858 44.7532 16.0915 43.5634 17.5543C42.5567 19.0172 40.3602 20.6629 39.1705 22.4001C37.9807 23.9543 37.5231 25.4172 37.4316 26.6972C37.3401 28.6172 38.0723 30.6286 38.0723 30.6286C37.3401 30.1715 36.4249 29.4401 35.8758 28.3429C35.2352 27.1543 34.9606 26.0572 34.8691 24.0458C34.8691 22.3086 35.5097 19.7486 36.8825 18.0115C37.8892 16.8229 40.2687 14.4458 41.1839 12.6172C42.0991 10.7886 41.9161 9.78291 41.9161 9.05148C41.9161 8.32005 41.55 7.22291 41.55 7.22291C42.0991 7.22291 42.8313 7.68005 43.0143 7.95434C43.3804 8.32005 43.7465 8.59434 43.7465 8.59434C43.838 8.04577 43.9295 7.04005 43.6549 5.76005C43.2889 3.84005 42.3737 2.74291 41.0924 1.82863C39.7196 0.731482 38.5298 0.822911 38.5298 0.822911C39.079 1.55434 39.445 2.28577 39.6281 3.38291C39.8111 4.48005 39.8111 5.66862 39.262 7.04005C38.6214 8.59434 36.791 9.96577 35.4182 11.3372C34.0454 12.7086 32.8557 14.0801 31.9405 16.0001C30.8422 18.2858 30.7507 20.0229 31.1168 22.3086C31.5744 24.9601 33.0387 26.6058 33.0387 26.6058C31.9405 26.2401 31.0253 25.5086 30.3846 24.8686C29.744 24.1372 29.3779 23.4058 29.1034 22.7658L21.9648 27.6115V34.9258L41.1839 51.1086L60.4945 34.9258V32.4572L41.367 48.4572V45.9886L60.4945 29.9886V27.7943L49.9698 20.8458C50.1528 21.5772 50.3359 23.3143 49.3291 25.4172C48.0479 28.0686 44.9362 30.2629 43.9295 30.8115C42.7397 31.5429 42.0991 32.2743 41.9161 33.0058C41.8245 33.3715 41.6415 33.92 41.8245 34.5601C43.1058 34.8343 44.1125 35.9315 44.1125 37.3943C44.1125 39.0401 42.8313 40.32 41.1839 40.32C39.5366 40.32 38.2553 39.0401 38.2553 37.3943C38.1638 35.84 39.1705 34.6515 40.5433 34.3772Z" fill="#898987"/>
</svg>
