<svg width="40" height="24" viewBox="0 0 40 24" fill="none" xmlns="http://www.w3.org/2000/svg">
<path d="M1.20703 24H14.8277C14.8277 24 12.2242 12.1207 20.8449 7.31039C22.7242 6.3966 28.707 2.98281 38.5001 10.2242C38.8104 9.96556 39.1035 9.75867 39.1035 9.75867C39.1035 9.75867 30.138 0.810403 20.1553 1.8104C15.138 2.25868 8.96563 6.82764 5.34495 12.8621C1.72427 18.8966 1.20703 24 1.20703 24Z" fill="#FF0000"/>
<path d="M1.20703 24H14.8277C14.8277 24 12.2242 12.1207 20.8449 7.31039C22.7242 6.3966 28.707 2.98281 38.5001 10.2242C38.8104 9.96556 39.1035 9.75867 39.1035 9.75867C39.1035 9.75867 30.138 0.810403 20.1553 1.8104C15.138 2.25868 8.96563 6.82764 5.34495 12.8621C1.72427 18.8966 1.20703 24 1.20703 24Z" fill="#FF0000"/>
<path d="M1.20703 24H14.8277C14.8277 24 12.2242 12.1207 20.8449 7.31039C22.7242 6.3966 28.707 2.98281 38.5001 10.2242C38.8104 9.96556 39.1035 9.75867 39.1035 9.75867C39.1035 9.75867 30.138 0.810403 20.1553 1.8104C15.1208 2.25868 8.94839 6.82764 5.32771 12.8621C1.70703 18.8966 1.20703 24 1.20703 24Z" fill="#FF0000"/>
<path d="M29.5862 2.77583L29.6552 1.62066C29.5 1.53445 29.069 1.32756 27.9828 1.01721L27.9138 2.15514C28.4828 2.3448 29.0345 2.55169 29.5862 2.77583Z" fill="#FF0000"/>
<path d="M27.9481 6.43103L27.8792 7.51724C28.4481 7.53448 29.0171 7.60344 29.586 7.72413L29.655 6.65517C29.0688 6.53448 28.4998 6.46551 27.9481 6.43103Z" fill="#FF0000"/>
<path d="M21.5688 1.05172C21.6205 1.05172 21.6895 1.05172 21.7412 1.05172L21.3964 0C20.8619 0 20.3102 0.0344828 19.7412 0.103448L20.0688 1.12069C20.5688 1.06897 21.0688 1.05172 21.5688 1.05172Z" fill="#FF0000"/>
<path d="M22.3965 7.39657L22.793 8.58623C23.293 8.34485 23.793 8.13795 24.293 7.98278L23.9137 6.84485C23.3275 7.01726 22.8275 7.20692 22.3965 7.39657Z" fill="#FF0000"/>
<path d="M14.5689 2.86214L13.7931 1.67249C13.362 1.89662 12.9138 2.138 12.4482 2.41386L13.2413 3.62076C13.6896 3.3449 14.1207 3.08628 14.5689 2.86214Z" fill="#FF0000"/>
<path d="M18.1035 10.6207L18.9311 11.8621C19.2242 11.4311 19.5691 11.0345 19.9484 10.638L19.1725 9.46558C18.7759 9.82764 18.4139 10.2242 18.1035 10.6207Z" fill="#FF0000"/>
<path d="M15.6035 16.1724L17.0001 17.2759C17.069 16.6035 17.1897 15.931 17.3621 15.2586L16.1208 14.2759C15.8966 14.9138 15.7414 15.5517 15.6035 16.1724Z" fill="#FF0000"/>
<path d="M8.05175 7.98278L6.82762 6.91382C6.37934 7.34485 5.94831 7.77589 5.55176 8.20692L6.87934 9.34485C7.24141 8.87933 7.63796 8.41382 8.05175 7.98278Z" fill="#FF0000"/>
<path d="M2.84482 15.6896L0.862068 14.9655C0.534482 15.7068 0.172414 16.5689 0 17.0344L1.98276 17.7586C2.20689 17.1723 2.56896 16.3275 2.84482 15.6896Z" fill="#FF0000"/>
<path d="M15.3447 20.5518C15.3792 21.4655 15.4654 22.2069 15.5516 22.7242L17.6206 23.4655C17.4654 22.7931 17.3102 22.0345 17.2068 21.2242L15.3447 20.5518Z" fill="#FF0000"/>
</svg>
