<svg width="24" height="24" viewBox="0 0 24 24" fill="none" xmlns="http://www.w3.org/2000/svg">
<path d="M15.7439 15.696C16.4399 15.624 16.9679 15.024 16.9439 14.304C16.9199 13.584 16.3199 13.008 15.5999 13.008H15.5519C14.8079 13.032 14.2319 13.656 14.2559 14.4C14.2799 14.76 14.4239 15.072 14.6399 15.288C13.8239 16.896 12.5759 18.072 10.7039 19.056C9.43193 19.728 8.11194 19.968 6.79193 19.8C5.71194 19.656 4.87194 19.176 4.34394 18.384C3.57594 17.208 3.50393 15.936 4.15193 14.664C4.60793 13.752 5.32794 13.08 5.78394 12.744C5.68794 12.432 5.54393 11.904 5.47193 11.52C1.99193 14.04 2.35194 17.448 3.40794 19.056C4.19994 20.256 5.80794 21 7.58394 21C8.06394 21 8.54393 20.952 9.02393 20.832C12.0959 20.232 14.4239 18.408 15.7439 15.696Z" fill="#764ABC"/>
<path d="M19.968 12.72C18.144 10.584 15.456 9.40799 12.384 9.40799H12C11.784 8.97599 11.328 8.68799 10.824 8.68799H10.776C10.032 8.71199 9.45597 9.33599 9.47997 10.08C9.50397 10.8 10.104 11.376 10.824 11.376H10.872C11.4 11.352 11.856 11.016 12.048 10.56H12.48C14.304 10.56 16.032 11.088 17.592 12.12C18.792 12.912 19.656 13.944 20.136 15.192C20.544 16.2 20.52 17.184 20.088 18.024C19.416 19.296 18.288 19.992 16.8 19.992C15.84 19.992 14.928 19.704 14.448 19.488C14.184 19.728 13.704 20.112 13.368 20.352C14.4 20.832 15.456 21.096 16.464 21.096C18.768 21.096 20.472 19.824 21.12 18.552C21.816 17.16 21.768 14.76 19.968 12.72Z" fill="#764ABC"/>
<path d="M7.77604 16.104C7.80004 16.824 8.40004 17.4 9.12004 17.4H9.16804C9.91205 17.376 10.488 16.752 10.464 16.008C10.44 15.288 9.84004 14.712 9.12004 14.712H9.07204C9.02404 14.712 8.95204 14.712 8.90404 14.736C7.92004 13.104 7.51204 11.328 7.65604 9.40802C7.75204 7.96802 8.23204 6.72002 9.07204 5.68802C9.76804 4.80002 11.112 4.36802 12.024 4.34402C14.568 4.29602 15.648 7.46402 15.72 8.73602C16.032 8.80802 16.56 8.97602 16.92 9.09602C16.632 5.20802 14.232 3.19202 11.928 3.19202C9.76804 3.19202 7.77604 4.75202 6.98404 7.05602C5.88004 10.128 6.60004 13.08 7.94404 15.408C7.82404 15.576 7.75204 15.84 7.77604 16.104Z" fill="#764ABC"/>
</svg>
