<svg width="23" height="24" viewBox="0 0 23 24" fill="none" xmlns="http://www.w3.org/2000/svg">
<g clip-path="url(#clip0)">
<path d="M6.11886 11.1309C6.11886 11.1309 5.84168 11.0736 5.76027 11.0981C5.67878 11.1226 5.21375 11.0414 5.00977 10.8943C4.80569 10.7479 4.60197 10.8539 4.41438 10.7397C4.22706 10.6254 3.94132 10.6416 3.72957 10.6336C3.51756 10.6256 3.24831 10.6416 3.15042 10.7721C3.05253 10.9024 2.66942 11.3021 2.53078 11.4649C2.39223 11.6278 1.82948 12.2146 1.60926 12.3041C1.60926 12.3041 1.66615 12.3942 1.63369 12.4592C1.60098 12.5246 1.62549 12.7117 1.62549 12.7771C1.62549 12.8426 1.64172 12.9481 1.58501 13.0136C1.5276 13.0789 1.49514 13.1846 1.49514 13.2254C1.49514 13.2661 1.42971 13.4129 1.49514 13.6087C1.56032 13.8044 1.61721 14.0241 1.34831 13.9346C1.07906 13.8451 1.13621 13.6006 0.916164 13.5922C0.696209 13.5841 0.410733 13.5922 0.32907 13.2909C0.247148 12.9891 0.0925409 12.4756 0.0598238 12.3942C0.0273658 12.3128 -0.0867554 11.9378 0.125258 11.6119C0.337271 11.2858 0.378016 11.0494 0.410733 10.9758C0.443191 10.9026 0.598317 10.4379 0.712179 10.3723C0.8263 10.3071 0.785382 10.1033 0.850816 10.0138C0.915992 9.92414 0.891475 9.77739 0.932221 9.6959C0.972879 9.61432 0.989368 9.37813 1.04634 9.19884C1.10349 9.01962 1.29107 8.74209 1.40519 8.5956C1.51931 8.4491 1.58475 8.22906 1.58475 8.1556C1.58475 8.08205 1.54409 7.92753 1.73141 7.79709C1.91874 7.66657 2.25307 7.2428 2.28579 7.17754C2.28579 7.16131 2.28579 6.85977 2.2693 6.75377C2.25307 6.64776 2.22864 6.55004 2.33448 6.50929C2.44092 6.46829 2.5875 6.3786 2.5875 6.3786C2.5875 6.3786 2.48572 6.24833 2.26542 6.13818C2.0452 6.02829 1.38465 5.28244 1.32353 4.84236C1.26224 4.40219 1.23781 3.70529 1.83725 3.46073C2.43677 3.216 3.09707 3.08167 3.19522 3.0695C3.29311 3.05742 3.63556 2.98387 3.77032 3.08167C3.77032 3.08167 3.62339 3.05742 3.56236 3.08167C3.50107 3.1061 3.8556 3.09402 3.94133 3.19174C3.94133 3.19174 3.77032 3.14305 3.67234 3.15514C3.5747 3.16722 3.84369 3.27737 3.89264 3.36301C3.94132 3.44864 4.12502 3.50976 4.10059 3.64434C4.07634 3.77875 4.06399 3.98662 4.08825 4.04774C4.11294 4.10885 4.17397 4.21901 4.18631 4.39002C4.19866 4.56128 4.24769 4.79367 4.29638 4.90356C4.34532 5.01363 4.46765 5.35591 4.4187 5.60038C4.4187 5.60038 4.46765 5.7227 4.7122 5.44154C4.95693 5.16012 5.20166 5.11143 5.32381 5.11143C5.44614 5.11143 5.62984 4.98894 5.75198 5.03788C5.87457 5.08692 6.00932 5.0258 6.15598 5.0624C6.30256 5.099 6.91417 5.0624 7.04893 5.01337C7.18316 4.96442 7.64819 4.9033 7.74582 4.9033C7.84372 4.9033 7.62368 4.74438 7.80712 4.62214C7.99081 4.49991 7.61133 4.43879 7.89292 4.08442C8.17399 3.7298 7.90475 3.632 7.85606 3.55879C7.80737 3.48524 7.79503 3.25286 7.79503 3.11853C7.79503 2.98387 7.75843 2.64159 7.75843 2.64159L7.80737 2.58047C7.80737 2.58047 7.76784 2.51547 7.72908 2.49242C7.69058 2.46937 7.65208 2.33065 7.62152 2.23828C7.59027 2.14582 7.25127 1.64497 7.15113 1.56805C7.05082 1.49062 7.03555 1.37546 7.05082 1.26747C7.06636 1.1593 7.14319 1.06711 7.12791 0.951432C7.11237 0.836015 7.12014 0.681925 7.11237 0.628145C7.10486 0.574019 7.12791 0.250646 7.1974 0.219828C7.1974 0.219828 7.25127 0.196606 7.27449 0.273435C7.27449 0.273435 7.23573 0.00401506 7.3205 0.00401506C7.3205 0.00401506 7.4209 -0.026803 7.4594 0.111921C7.49764 0.250646 7.53649 0.327561 7.54417 0.366148C7.55194 0.404736 7.58276 0.466113 7.58276 0.466113C7.58276 0.466113 7.66727 0.427957 7.73685 0.458516C7.80617 0.489334 7.85269 0.520152 7.85269 0.558739C7.85269 0.597327 7.85269 0.527921 7.93746 0.527921C8.02206 0.527921 8.09932 0.504614 8.12263 0.589558C8.14542 0.674156 8.16113 0.736051 8.16864 0.820736C8.17667 0.905334 8.19195 0.97474 8.22268 1.03638C8.25376 1.09793 8.29951 1.20566 8.29951 1.35215C8.29951 1.49865 8.35381 1.76815 8.37686 1.8916C8.39982 2.01487 8.66207 2.49242 8.66207 2.49242C8.66207 2.49242 9.06279 2.56959 9.2477 2.53101C9.43287 2.49242 9.75632 2.56182 9.71808 2.73137C9.67958 2.90065 9.65653 3.40159 9.641 3.79455C9.62554 4.1875 9.56374 4.95009 9.50218 5.21986C9.44038 5.48928 9.06279 6.19058 8.9087 6.306C8.75487 6.42176 8.58499 6.49859 8.16113 6.69895C7.73711 6.89931 7.24376 7.12272 7.24376 7.12272C7.24376 7.12272 7.50593 7.49236 7.56748 7.51567C7.62903 7.53872 7.62152 7.4618 7.69835 7.49236C7.73659 7.50773 7.86961 7.55987 7.7851 7.52517C7.78493 7.52836 8.24944 7.64723 8.24944 7.64723C8.2939 7.64637 8.32152 7.63834 8.31591 7.61201C8.29269 7.50445 8.40077 7.36581 8.44687 7.33473C8.49314 7.304 8.37755 7.47337 8.44687 7.5502C8.51644 7.62755 9.5128 7.33258 9.49416 7.38541C9.47568 7.43824 9.5482 7.44238 9.61173 7.39266C9.67475 7.34319 9.93873 7.17141 10.1268 7.1721C10.3154 7.17305 10.7422 7.21068 10.8565 7.16899C10.971 7.12747 11.4913 6.8066 11.6651 6.72174C11.8384 6.63645 12.4374 6.64465 12.6903 6.47451C12.9432 6.3041 13.5 5.90536 13.7351 5.76025C13.9701 5.61523 15.7133 4.54972 16.0852 4.49179C16.4571 4.43387 17.3485 4.08244 17.5012 3.97358C17.654 3.86499 18.1345 3.60057 18.2307 3.5177C18.3272 3.43474 18.8091 3.64538 19.0603 4.00242C19.0603 4.00242 19.5502 3.76269 19.6559 3.75354C19.7614 3.7443 19.9568 3.60834 20.1066 3.4937C20.2567 3.3788 20.7085 3.07459 20.9061 2.97834C20.9061 2.97834 21.006 2.93449 21.0251 2.86439C21.0443 2.79438 21.1241 2.66058 21.1958 2.6882C21.1958 2.6882 21.3532 2.4875 21.4169 2.54793C21.4169 2.54793 21.5551 2.41723 21.6343 2.48828C21.6343 2.48828 21.7126 2.49941 21.739 2.54154C21.739 2.54154 21.8385 2.46134 21.8845 2.5222C21.8845 2.5222 21.9563 2.44123 22.0773 2.53627C22.0773 2.53627 22.1578 2.63537 22.0097 2.81769C22.0097 2.81769 21.9168 2.86569 21.8518 2.99941C21.7873 3.13321 21.6067 3.38752 21.4089 3.48714C21.2106 3.58676 20.9817 3.76174 20.9903 4.11947C20.999 4.47755 20.8465 4.89372 20.4705 4.80015C20.0945 4.70657 19.7648 4.83286 19.4356 5.01199C19.4356 5.01199 19.4067 5.20104 19.375 5.2461C19.3429 5.29099 19.1958 5.2764 18.9934 5.40321C18.7911 5.52968 18.6678 5.57724 18.5083 5.69646C18.3485 5.81576 18.3143 5.89621 18.1801 5.95845C18.0457 6.0213 17.8949 6.19145 17.8059 6.28571C17.7165 6.37972 17.3875 6.61124 16.9987 6.8003C16.6096 6.98961 15.0103 7.55996 14.6406 7.85976C14.2704 8.15957 13.5899 8.69668 12.5572 9.20186C12.5143 9.22266 12.4745 9.24303 12.434 9.26315C12.3715 9.32012 11.4835 10.1321 11.1795 10.3445C10.8643 10.5645 10.7383 10.596 10.6437 11.0995C10.5817 11.4313 10.3283 11.9669 10.1533 12.3936C10.1209 12.7477 10.0975 13.1025 10.0832 13.4579C10.0711 13.7756 9.66404 16.9356 9.56615 17.2774C9.46791 17.6197 9.44374 17.8763 9.49269 18.1451C9.54164 18.4134 9.41923 18.7312 9.27256 19C9.12538 19.2688 8.88082 19.9041 8.91742 20.2706C8.95402 20.6371 8.99088 20.7716 8.88082 20.8203C8.7705 20.869 8.41562 20.8572 8.36684 20.9793C8.3179 21.1015 8.13437 21.1015 8.13437 21.1015C8.13437 21.1015 8.0793 21.6466 8.17529 21.7426C8.27154 21.8381 8.61097 22.2397 8.19808 22.5388C7.78476 22.8384 7.34916 23.1041 7.24756 23.3132C7.14552 23.522 6.91909 23.6409 6.83424 23.7086C6.74938 23.7762 6.59667 23.8724 6.58528 23.9117C6.57414 23.9514 6.44975 24.0249 6.3307 23.9912C6.3307 23.9912 6.22893 24.036 6.12128 23.9172C6.12128 23.9172 5.94621 23.9343 5.91203 23.8215C5.91203 23.8215 5.76485 23.8325 5.74793 23.7197C5.74793 23.7197 5.67421 23.5559 5.89502 23.4883C6.11541 23.4202 6.46649 22.9286 6.47789 22.8496C6.48902 22.7706 6.65339 22.2787 6.77778 22.0757C6.90209 21.872 7.06619 21.341 7.08898 20.8552C7.08898 20.8552 7.03831 20.8215 7.03831 20.7709C7.03831 20.7198 7.04124 20.4863 7.06576 20.3969C7.09045 20.307 7.13922 20.0466 7.10676 19.6637C7.07396 19.2812 7.15571 18.6539 7.10676 18.2222C7.05773 17.7905 7.15087 14.7936 7.28123 14.4027C7.41192 14.0117 7.46069 13.9223 7.45267 13.7674C7.44438 13.6125 7.45267 13.1401 7.50161 13.1158C7.55039 13.0914 7.55859 12.4968 7.54236 12.4314C7.52587 12.3664 7.17505 12.1221 7.12636 11.951C7.12636 11.951 7.13439 12.1301 7.12636 12.1953C7.11807 12.2605 7.11013 12.179 6.97943 12.0404C6.84857 11.9018 6.60392 11.6087 6.58769 11.3968C6.55852 11.3811 6.19699 11.1684 6.19699 11.1684C6.1521 11.1704 6.12974 11.1493 6.11886 11.1309Z" fill="black"/>
<path d="M7.7865 7.51923C7.74947 8.18082 6.1964 11.194 6.1964 11.194C6.1421 11.4606 6.15341 11.7095 6.18077 11.8575C6.24655 12.2123 5.91748 12.7446 5.91748 12.7446L6.2759 12.9324C6.75993 12.6529 6.55231 11.8147 6.55231 11.8147C6.51485 11.6746 6.50694 11.5281 6.52909 11.3847L6.53289 11.3886C6.53289 11.3886 8.29427 7.91105 8.20898 7.63714C8.20872 7.63758 7.99878 7.60745 7.7865 7.51923Z" fill="#991B21"/>
</g>
<defs>
<clipPath id="clip0">
<rect width="22.0992" height="24" fill="white"/>
</clipPath>
</defs>
</svg>
