<svg width="27" height="24" viewBox="0 0 27 24" fill="none" xmlns="http://www.w3.org/2000/svg">
<g clip-path="url(#clip0)">
<path d="M13.4875 14.4043C14.8154 14.4043 15.8918 13.3278 15.8918 12C15.8918 10.6721 14.8154 9.5957 13.4875 9.5957C12.1597 9.5957 11.0833 10.6721 11.0833 12C11.0833 13.3278 12.1597 14.4043 13.4875 14.4043Z" fill="#61DAFB"/>
<path d="M13.4875 16.9259C20.6125 16.9259 26.3885 14.7205 26.3885 12C26.3885 9.27953 20.6125 7.07416 13.4875 7.07416C6.36241 7.07416 0.586426 9.27953 0.586426 12C0.586426 14.7205 6.36241 16.9259 13.4875 16.9259Z" stroke="#61DAFB"/>
<path d="M9.22143 14.4629C12.784 20.6334 17.5819 24.5328 19.9379 23.1726C22.2939 21.8124 21.3158 15.7075 17.7533 9.53706C14.1907 3.36659 9.39282 -0.532871 7.03682 0.827365C4.68083 2.1876 5.65891 8.29244 9.22143 14.4629Z" stroke="#61DAFB"/>
<path d="M9.22152 9.53706C5.659 15.7075 4.68092 21.8124 7.03691 23.1726C9.39291 24.5328 14.1908 20.6334 17.7533 14.4629C21.3159 8.29243 22.2939 2.18759 19.9379 0.82736C17.582 -0.532876 12.784 3.36659 9.22152 9.53706Z" stroke="#61DAFB"/>
</g>
<defs>
<clipPath id="clip0">
<rect width="26.9749" height="24" fill="white"/>
</clipPath>
</defs>
</svg>
